<svg id="Capa_1" data-name="Capa 1" xmlns="http://www.w3.org/2000/svg" viewBox="0 0 34.93 28.46">
  <defs>
    <style>
      .cls-1, .cls-2, .cls-3 {
        stroke: #000;
      }

      .cls-1 {
        stroke-miterlimit: 10;
        stroke-width: 0.5px;
      }

      .cls-2 {
        fill: #fff;
      }

      .cls-2, .cls-3 {
        stroke-linecap: round;
        stroke-linejoin: round;
      }

      .cls-3 {
        fill: none;
      }
    </style>
  </defs>
  <path class="cls-1" d="M9.87,17.71l.05.05h0a5.66,5.66,0,0,0-.7.68l-.13-.11a3.07,3.07,0,0,1-.26-.25,1.71,1.71,0,0,1-.18-.2.52.52,0,0,1-.11-.1,2.57,2.57,0,0,1-.29-.28l-.18-.2a.68.68,0,0,1-.12-.12A1.26,1.26,0,0,1,7.69,17l-.22-.24a.68.68,0,0,1-.12-.12,1.26,1.26,0,0,1-.24-.22l-.22-.24a.46.46,0,0,1-.07-.07,2.11,2.11,0,0,1-.4-.39l-.11-.12-.07-.07A4.65,4.65,0,0,1,5.15,13l.09.08.09.09a2.84,2.84,0,0,0,.49.49l.09.08a2.28,2.28,0,0,0,.49.49l.09.09a2.4,2.4,0,0,0,.45.45s0,0,0,0l.08.09.08.09a2.46,2.46,0,0,0,.4.39h0l.09.09a.52.52,0,0,0,.1.11,2.06,2.06,0,0,0,.33.33l.06.05.09.09a1,1,0,0,0,.14.15,2,2,0,0,0,.29.29l.06,0,.09.09a1,1,0,0,0,.14.15,2,2,0,0,0,.29.29l.06.05.09.09a1,1,0,0,0,.14.15.88.88,0,0,0,.24.23s0,0,0,0Z" transform="translate(-4.79 -5.82)"/>
  <path class="cls-1" d="M36.77,21a5.59,5.59,0,0,0-.59.11c-.18.05-.35.12-.52.18h0l-.06-.06-.06-.07h0l-.32-.32a.08.08,0,0,0-.05-.05L35,20.64l-.11-.12-.09-.08-.1-.11-.28-.27a.94.94,0,0,0-.1-.1,1.12,1.12,0,0,0-.18-.2l-.07-.07-.23-.21-.1-.11c-.12-.13-.22-.24-.33-.34L33.36,19l-.09-.07-.07-.08a4.25,4.25,0,0,0-.36-.37l-.05-.05-.1-.08a.8.8,0,0,0-.13-.13,1.55,1.55,0,0,0-.25-.26,1.57,1.57,0,0,0-.19-.18l-.07-.08c-.11-.12-.22-.23-.32-.32a.08.08,0,0,0-.05-.05l-.14-.13-.07-.08-.23-.24,0-.05L31,16.59a.86.86,0,0,0-.13-.14l-.15-.16a.46.46,0,0,1-.07-.07L30.38,16a.86.86,0,0,0-.13-.14,3.19,3.19,0,0,0-.26-.26,1.62,1.62,0,0,0-.19-.18l-.07-.08a4.25,4.25,0,0,0-.36-.37l-.05-.05-.1-.08a.8.8,0,0,0-.13-.13,1.55,1.55,0,0,0-.25-.26,1.57,1.57,0,0,0-.19-.18l-.1-.11-.05-.05L28.36,14l-.14-.14-.15-.13L28,13.63l0,0-.18-.19-.07-.07-.23-.21a.86.86,0,0,0-.13-.14,3.07,3.07,0,0,0-.25-.26l-.2-.18-.06-.07a4.51,4.51,0,0,0-.37-.38L26.43,12l-.1-.08-.09-.11c-.09-.09-.17-.18-.25-.25l-.15-.15-.09-.07-.05-.06-.05,0a1.29,1.29,0,0,0-.19-.21L25.41,11l-.23-.21-.06-.07L25,10.65a3.83,3.83,0,0,0-.28-.29l-.05,0-.1-.08-.1-.1a3.08,3.08,0,0,0-.25-.27L24,9.65l-.08-.1c-.18-.19-.34-.34-.5-.48a5.28,5.28,0,0,0-.58-.58,5.11,5.11,0,0,0-.57-.57,5.29,5.29,0,0,0-.58-.58c-.11-.13-.22-.24-.32-.34a9.55,9.55,0,0,1,3.17,1.76l.17.19.22.2a2.21,2.21,0,0,1,.26.28l.1.1.16.14a2.9,2.9,0,0,1,.34.36l.08.08.16.14a2.9,2.9,0,0,1,.34.36l.08.08.16.14a2.9,2.9,0,0,1,.34.36l.08.08.16.14a3.31,3.31,0,0,1,.32.33.81.81,0,0,1,.09.1,1.17,1.17,0,0,1,.2.19,2.65,2.65,0,0,1,.29.29l.09.1.24.22a2.4,2.4,0,0,1,.22.24.68.68,0,0,1,.12.12,1.62,1.62,0,0,1,.2.18,2.24,2.24,0,0,1,.3.32l.08.08.16.14a3.34,3.34,0,0,1,.32.33l.1.11a1.62,1.62,0,0,1,.2.18,2.54,2.54,0,0,1,.28.29l.1.11a1.56,1.56,0,0,1,.23.22s0,0,.06,0l.17.18.11.12.24.22.06.06.17.18.11.12.24.22a2,2,0,0,1,.24.26.47.47,0,0,1,.1.1l.2.18a3.84,3.84,0,0,1,.28.3.94.94,0,0,1,.1.1l.2.18a1.69,1.69,0,0,1,.26.28.68.68,0,0,1,.12.12,1.62,1.62,0,0,1,.2.18,2.54,2.54,0,0,1,.28.29l.1.11a1.62,1.62,0,0,1,.2.18,3.83,3.83,0,0,1,.28.29l.09.1a1.17,1.17,0,0,1,.2.19,3,3,0,0,1,.31.31l.07.08.16.14q.16.15.33.33l.09.11a1.62,1.62,0,0,1,.2.18,2.54,2.54,0,0,1,.28.29l.1.11.21.2,0,0Z" transform="translate(-4.79 -5.82)"/>
  <path class="cls-1" d="M36.77,21l-.09-.08-.14-.16,0,0a2.27,2.27,0,0,0-.31-.31l-.1-.09-.18-.2-.29-.29-.11-.09-.22-.24a2.39,2.39,0,0,0-.23-.22L35,19.17a.89.89,0,0,0-.19-.2,1.59,1.59,0,0,0-.29-.29.81.81,0,0,0-.1-.09l-.18-.2a2.69,2.69,0,0,0-.3-.29.81.81,0,0,0-.1-.09,1.12,1.12,0,0,0-.18-.2,2.24,2.24,0,0,0-.32-.3.3.3,0,0,0-.08-.08l-.18-.2a3.84,3.84,0,0,0-.3-.28.94.94,0,0,0-.1-.1l-.18-.2a2,2,0,0,0-.3-.28.47.47,0,0,0-.1-.1l-.14-.16a3.73,3.73,0,0,0-.35-.34l-.08-.07-.09-.11-.06-.06a3.73,3.73,0,0,0-.35-.34l-.08-.07L30.81,15s0,0-.06,0a2.06,2.06,0,0,0-.33-.33.81.81,0,0,0-.1-.09,1.12,1.12,0,0,0-.18-.2,2,2,0,0,0-.3-.29.81.81,0,0,0-.1-.09l-.22-.24a2.4,2.4,0,0,0-.24-.22l-.12-.12-.18-.2a2.24,2.24,0,0,0-.32-.3.3.3,0,0,0-.08-.08l-.14-.16c-.11-.11-.22-.23-.33-.32a.81.81,0,0,0-.1-.09,1.8,1.8,0,0,0-.19-.2,2,2,0,0,0-.29-.29.81.81,0,0,0-.1-.09l-.22-.24a1.65,1.65,0,0,0-.24-.22l-.12-.12-.22-.24a2.4,2.4,0,0,0-.24-.22l-.12-.12-.22-.24a2.4,2.4,0,0,0-.24-.22l-.12-.12-.22-.24a2,2,0,0,0-.26-.24l-.1-.1L25,9.15l-.39-.39A9.55,9.55,0,0,0,21.39,7a18.05,18.05,0,0,0-5.86-.93c-5.88,0-10.48,2.42-10.48,5.51A9.17,9.17,0,0,0,5.15,13,4.65,4.65,0,0,0,6.24,15.5a.81.81,0,0,0,.18.19A2.27,2.27,0,0,0,6.7,16a.74.74,0,0,0,.12.13,2.09,2.09,0,0,0,.29.31l.16.14.08.08a2.9,2.9,0,0,0,.34.36l.16.14a.2.2,0,0,0,.08.08,1.52,1.52,0,0,0,.3.32,1.62,1.62,0,0,0,.2.18l.09.1a2.06,2.06,0,0,0,.29.3,1.12,1.12,0,0,0,.2.18l0,0a4.34,4.34,0,0,1,.78-.62l0,0s0,0,0,0l-.09-.09-.15-.14a2,2,0,0,1-.29-.29L9.18,17l-.09-.09a1,1,0,0,1-.15-.14,2,2,0,0,1-.29-.29l-.05-.06-.09-.09a1,1,0,0,1-.15-.14,2,2,0,0,1-.29-.29L8,15.87l-.08-.09a1.12,1.12,0,0,1-.2-.18.73.73,0,0,1-.19-.2h0a.81.81,0,0,1-.09-.1l-.09-.09a1.37,1.37,0,0,1-.22-.2.83.83,0,0,1-.2-.22,4.74,4.74,0,0,1-.89-3.2c0-2.44,4.34-4.51,9.48-4.51,3.48,0,6.72,1,8.41,2.48l.31.31.15.17.1.1a1.12,1.12,0,0,1,.2.18l.05,0,.23.25.05,0,.09.09.29.28.05.05.1.12a.76.76,0,0,1,.09.09l.05,0,.14.13.15.15.15.17.1.08.19.19.05.05a3.08,3.08,0,0,1,.24.26l.13.12.26.25.18.2.07.06c.12.11.24.22.36.35l.07.07.08.1.1.09,0,0,.21.2.14.14.09.11.05,0,.05.05a2.65,2.65,0,0,1,.29.29,1.8,1.8,0,0,1,.19.2l.06.06.23.21.05.05a3.08,3.08,0,0,1,.24.26l.12.11a2.13,2.13,0,0,1,.26.26,1.8,1.8,0,0,1,.19.2l.07.06c.12.11.24.22.36.35a.46.46,0,0,0,.07.07l.08.1.07.06c.12.11.24.22.36.35l0,.05.1.12.13.12a1.39,1.39,0,0,1,.21.21.08.08,0,0,1,.05.05,1.8,1.8,0,0,1,.19.2l.13.12a2.13,2.13,0,0,1,.26.26,1.8,1.8,0,0,1,.19.2l.06.06.23.21.05.05a3.08,3.08,0,0,1,.24.26l.12.11.16.15.06.06.23.25.1.09c.11.1.22.2.33.32l.07.07.08.1.1.1a2.65,2.65,0,0,1,.38.37l.1.11.09.08a2,2,0,0,1,.25.25.08.08,0,0,1,.05.05,1.8,1.8,0,0,1,.19.2l.13.12h0l.13.12.31.33.34.32a4.72,4.72,0,0,1,.74-.67A3.5,3.5,0,0,0,36.77,21Z" transform="translate(-4.79 -5.82)"/>
  <path class="cls-1" d="M39.47,26.08l-.12,1.21L38,29.18l-1,.43-.93.61L35,30.53l-1,.06-1-.09-1,.18-1-.21-1,.24-1,0-1-.13-1,.14-1.05-.24h-.95l-1-.06-1-.14-.67.08.18-.47c-.07,0,.08,0,0,0v0a4.72,4.72,0,0,0,.18-.53l.31,0,1.06.16,1,.05h1l1,.23,1-.14,1.08.14.86,0L31,29.44l1,.22,1-.17,1.07.1.87-.05.83-.26.86-.57.79-.34,1-1.43.1-.9,0-.9-.19-.83-.51-.74-.14-.15-.49-.5-.58-.69-1-.17-.83-.65-.88-.22L33,20.83,31.88,21l-1-.44L29,20.41l-1,.24-1-.14-.91.2-2.76,1c0-.16-.06-.33-.1-.5s-.08-.31-.12-.47l2.71-.95,1.13-.25,1,.14,1-.24,2.26.21L32,20l1.06-.17,1.07.44.68.2.43.12.72.56,1.11.19.79.93.56.58.11.12.68,1,.24,1.08Z" transform="translate(-4.79 -5.82)"/>
  <line class="cls-2" x1="3.24" y1="5.25" x2="2.98" y2="5"/>
  <line class="cls-2" x1="4.59" y1="6.6" x2="4.01" y2="6.02"/>
  <line class="cls-3" x1="11.27" y1="13.52" x2="5.35" y2="7.36"/>
  <path d="M11.72,17.93h.39A3.44,3.44,0,0,1,13.78,19a11.14,11.14,0,0,1,1.43,1.85,2.39,2.39,0,0,0,.13.21l.31-.19a13.68,13.68,0,0,1,2.87-1.35,5.08,5.08,0,0,1,1.9-.3,1.45,1.45,0,0,1,1.2.68,4.59,4.59,0,0,1,.38.77,9,9,0,0,1,.44,2.78,16.62,16.62,0,0,1-.38,4.1,12.35,12.35,0,0,1-1.39,3.76,6.1,6.1,0,0,1-2.3,2.32A5.56,5.56,0,0,1,14,34a.54.54,0,0,0-.31,0A5.83,5.83,0,0,1,10,34a5.4,5.4,0,0,1-3.37-3,6.85,6.85,0,0,1-.45-3.41A13.63,13.63,0,0,1,7.07,24a15.45,15.45,0,0,1,2.65-4.65A3.88,3.88,0,0,1,11.72,17.93ZM12,19.06h0c0,.11-.06.21-.08.32a38.33,38.33,0,0,0-.58,4C11.07,25,11,26.67,11,28.32a18.43,18.43,0,0,0,.32,3.85,3.54,3.54,0,0,0,.5,1.32c.12.17.18.18.27,0a4.58,4.58,0,0,0,.4-.94A13.44,13.44,0,0,0,12.87,29a51.6,51.6,0,0,0-.67-8.69C12.13,19.91,12,19.49,12,19.06Zm-.79.27c0,.08-.08.12-.1.17a11.58,11.58,0,0,0-.54,1.05,21,21,0,0,0-1.78,7.3A8.35,8.35,0,0,0,9.11,31a4.07,4.07,0,0,0,1.3,2c.17.14.36.25.57.39-.1-.34-.2-.62-.28-.91a16.66,16.66,0,0,1-.38-3.72,40.37,40.37,0,0,1,.19-4.4c.11-1.13.24-2.26.38-3.39C11,20.45,11.07,19.91,11.16,19.33Zm1.72,14.06a3.73,3.73,0,0,0,.37-.23A4,4,0,0,0,14.72,31a9.49,9.49,0,0,0,.35-3.71A21.13,21.13,0,0,0,14.21,23a15.71,15.71,0,0,0-1.43-3.45l-.09-.15a.86.86,0,0,0,0,.28c.25,1.33.41,2.68.54,4a45.89,45.89,0,0,1,.25,5.11,17.35,17.35,0,0,1-.29,3.29C13.13,32.51,13,32.94,12.88,33.39ZM9.45,33c-.13-.19-.25-.34-.35-.5a7,7,0,0,1-1-3.27,13.53,13.53,0,0,1,.16-3.18,21.83,21.83,0,0,1,1.58-5.6c.06-.16.14-.31.21-.47a.36.36,0,0,0-.13.11,15.92,15.92,0,0,0-2.59,5.07,9.79,9.79,0,0,0-.48,4.13A4.65,4.65,0,0,0,9.45,33ZM21.7,22.18a23,23,0,0,1-.79,3.68,18.46,18.46,0,0,1-2.1,4.82,7.39,7.39,0,0,1-2.32,2.4c-.31.2-.66.35-1,.52h.16a4.55,4.55,0,0,0,3-1A6.59,6.59,0,0,0,20.63,30a15.75,15.75,0,0,0,1.14-7.15C21.76,22.62,21.73,22.4,21.7,22.18ZM13.8,20l0,0c.13.29.26.58.38.88a22.53,22.53,0,0,1,1.46,5.54,12.2,12.2,0,0,1,0,3.62,6,6,0,0,1-1.19,2.9s0,0,0,.08a4.71,4.71,0,0,0,2.4-2.94,7.23,7.23,0,0,0,.05-3.43,16,16,0,0,0-2.43-5.81C14.23,20.53,14,20.25,13.8,20Zm7.3,1.14h-.05c-.1.26-.2.53-.31.79a53.1,53.1,0,0,1-3,6.22.68.68,0,0,0-.08.24c0,.35,0,.7-.07,1.05a5.29,5.29,0,0,1-1.41,3.07l-.08.1,0,0c.26-.21.54-.4.79-.63a9.76,9.76,0,0,0,2.15-3.05A21.54,21.54,0,0,0,21,22.37C21.06,22,21.07,21.52,21.1,21.1Zm-.5-.69,0,0c-.08.08-.15.17-.22.25a40.71,40.71,0,0,0-3.26,4,.27.27,0,0,0,0,.2l.39,1.54c0,.11,0,.22.06.33l.07.36A48.05,48.05,0,0,0,20.6,20.41Zm-.89-.11-.1.05a15.76,15.76,0,0,0-3.26,2.42.17.17,0,0,0,0,.17c.12.32.25.63.38.95a.27.27,0,0,1,0,.07Zm-1.24-.08a14.73,14.73,0,0,0-2.81,1.4l.3.57Z" transform="translate(-4.79 -5.82)"/>
  <path d="M22.23,29.9l.21,0s0,0,0,.06Z" transform="translate(-4.79 -5.82)"/>
  <path class="cls-1" d="M26.22,32.25" transform="translate(-4.79 -5.82)"/>
</svg>
