<svg id="Capa_1" data-name="Capa 1" xmlns="http://www.w3.org/2000/svg" viewBox="0 0 39.35 32.89">
  <defs>
    <style>
      .cls-1, .cls-2 {
        stroke: #000;
      }

      .cls-1 {
        stroke-miterlimit: 10;
        stroke-width: 0.5px;
      }

      .cls-2 {
        fill: #fff;
        stroke-linecap: round;
        stroke-linejoin: round;
      }
    </style>
  </defs>
  <path class="cls-1" d="M12,5.45c3.83,0,7.37,1.17,8.87,3a5.29,5.29,0,0,1,.58.58,6.33,6.33,0,0,1,.58.58,6.33,6.33,0,0,1,.58.58,5.29,5.29,0,0,1,.58.58,5.11,5.11,0,0,1,.57.57,5.28,5.28,0,0,1,.58.58,6.33,6.33,0,0,1,.58.58,5.29,5.29,0,0,1,.58.58,5.29,5.29,0,0,1,.58.58,5.1,5.1,0,0,1,.57.57,4.53,4.53,0,0,1,.58.58,4.53,4.53,0,0,1,.58.58,5.29,5.29,0,0,1,.58.58,5.29,5.29,0,0,1,.58.58,5.29,5.29,0,0,1,.58.58,5.1,5.1,0,0,1,.57.57,4.53,4.53,0,0,1,.58.58,5.29,5.29,0,0,1,.58.58,5.29,5.29,0,0,1,.58.58,6.33,6.33,0,0,1,.58.58,6.33,6.33,0,0,1,.58.58,5.1,5.1,0,0,1,.57.57,4.53,4.53,0,0,1,.58.58,5.28,5.28,0,0,1,.58.58,5.29,5.29,0,0,1,.58.58c.14.13.27.25.39.38a1.8,1.8,0,0,1,.19.2,6.33,6.33,0,0,1,.58.58l.06.06a4.76,4.76,0,0,1,.53-.19,5.59,5.59,0,0,1,.59-.11c-.15-.16-.31-.32-.47-.46a4,4,0,0,0-.58-.58,4.54,4.54,0,0,0-.58-.58,4.54,4.54,0,0,0-.58-.58,4.39,4.39,0,0,0-.57-.57,4,4,0,0,0-.58-.58,4.54,4.54,0,0,0-.58-.58,5.29,5.29,0,0,0-.58-.58,4.54,4.54,0,0,0-.58-.58,4.54,4.54,0,0,0-.58-.58,5.11,5.11,0,0,0-.57-.57,4,4,0,0,0-.58-.58,4.54,4.54,0,0,0-.58-.58,4,4,0,0,0-.58-.58,5.29,5.29,0,0,0-.58-.58,4.54,4.54,0,0,0-.58-.58,3.84,3.84,0,0,0-.57-.57,4,4,0,0,0-.58-.58,4,4,0,0,0-.58-.58,4,4,0,0,0-.58-.58,5.29,5.29,0,0,0-.58-.58,4.54,4.54,0,0,0-.58-.58,4.39,4.39,0,0,0-.57-.57,4.54,4.54,0,0,0-.58-.58,4.54,4.54,0,0,0-.58-.58,5.29,5.29,0,0,0-.58-.58,5.29,5.29,0,0,0-.58-.58,5.29,5.29,0,0,0-.58-.58c-1.64-2-5.41-3.26-9.58-3.26C6.09,4.45,1.49,6.87,1.49,10c0,2.06.54,3.49,1.65,4.37a3.48,3.48,0,0,0,.57.58,4,4,0,0,0,.58.58,3.54,3.54,0,0,0,.58.58,3.54,3.54,0,0,0,.58.58,4,4,0,0,0,.58.58,3.48,3.48,0,0,0,.58.57,3.13,3.13,0,0,0,.57.58,3.54,3.54,0,0,0,.58.58,4,4,0,0,0,.58.58,4,4,0,0,0,.58.58,4,4,0,0,0,.58.58,3.36,3.36,0,0,0,.57.56,5.26,5.26,0,0,1,.72-.69l0-.05a2.48,2.48,0,0,1-.49-.48L10.16,20a3.24,3.24,0,0,1-.49-.49l-.09-.09a3.24,3.24,0,0,1-.49-.49L9,18.79a2.84,2.84,0,0,1-.49-.49l-.09-.09a3.24,3.24,0,0,1-.49-.49l-.08-.09a2.53,2.53,0,0,1-.49-.49l-.09-.09a2.28,2.28,0,0,1-.49-.49l-.09-.08A2.84,2.84,0,0,1,6.2,16l-.09-.09a3.24,3.24,0,0,1-.49-.49l-.09-.09A3.24,3.24,0,0,1,5,14.83L5,14.74a3.24,3.24,0,0,1-.49-.49l-.08-.09a2.53,2.53,0,0,1-.49-.49l-.09-.09c-.89-.69-1.31-1.84-1.31-3.62C2.49,7.52,6.83,5.45,12,5.45Z" transform="translate(-1.24 -4.2)"/>
  <path class="cls-1" d="M40.34,28.89l-.12,1.21L38.88,32l-1,.43L37,33l-1.08.31-1,.06-1-.09-1,.18-1-.21-1,.24-1,0-1-.13-1,.14-1.05-.24h-.95l-1-.06-1-.14-.67.08.18-.47c-.07,0,.08,0,0,0v0a4.72,4.72,0,0,0,.18-.53l.31,0,1.06.16.95,0h1l1,.23,1-.14,1.08.14.86,0,1.07-.27,1,.22,1-.17,1.07.1.87,0,.83-.26.86-.57.79-.34,1-1.43.1-.9,0-.9-.19-.83-.51-.74-.14-.15-.49-.5L37.42,25l-1-.17-.83-.65L34.71,24l-.89-.36-1.07.17-1-.44-1.87-.15-1,.24-1-.14-.91.2-2.76,1c0-.16-.06-.33-.1-.5s-.08-.31-.12-.47l2.71-1,1.13-.25,1,.14,1-.24,2.26.21.82.36,1.06-.17,1.07.44.68.2.43.12.72.56,1.11.19.79.93.56.58.11.12.68,1.05.24,1.08Z" transform="translate(-1.24 -4.2)"/>
  <line class="cls-2" x1="5.24" y1="6.26" x2="4.9" y2="5.92"/>
  <line class="cls-2" x1="7.01" y1="8.03" x2="6.24" y2="7.26"/>
  <line class="cls-2" x1="15.78" y1="17.1" x2="8.01" y2="9.03"/>
  <path d="M12.59,20.74H13a3.44,3.44,0,0,1,1.67,1.08,11.22,11.22,0,0,1,1.43,1.86l.13.2.31-.19a13.65,13.65,0,0,1,2.87-1.34,4.89,4.89,0,0,1,1.9-.3,1.42,1.42,0,0,1,1.2.68,4.49,4.49,0,0,1,.38.76,9.08,9.08,0,0,1,.44,2.78,16.62,16.62,0,0,1-.38,4.1,12.41,12.41,0,0,1-1.39,3.77,6.15,6.15,0,0,1-2.3,2.31,5.56,5.56,0,0,1-4.36.35.54.54,0,0,0-.31,0,5.83,5.83,0,0,1-3.67,0,5.37,5.37,0,0,1-3.37-3,6.85,6.85,0,0,1-.45-3.41,13.83,13.83,0,0,1,.86-3.52,15.28,15.28,0,0,1,2.65-4.64A3.84,3.84,0,0,1,12.59,20.74Zm.23,1.14h-.05c0,.11-.06.21-.08.32a38.72,38.72,0,0,0-.58,4c-.17,1.63-.27,3.27-.28,4.92A18.43,18.43,0,0,0,12.15,35a3.41,3.41,0,0,0,.5,1.32c.12.17.18.18.27,0a4.91,4.91,0,0,0,.4-.95,13.44,13.44,0,0,0,.42-3.51,51.68,51.68,0,0,0-.67-8.69C13,22.73,12.9,22.3,12.82,21.88Zm-.79.27a1.81,1.81,0,0,0-.1.17,10.24,10.24,0,0,0-.54,1,21,21,0,0,0-1.78,7.3A8.35,8.35,0,0,0,10,33.84a4,4,0,0,0,1.3,2c.17.14.36.25.57.39-.1-.34-.2-.62-.28-.91a16.6,16.6,0,0,1-.38-3.72,40.37,40.37,0,0,1,.19-4.4c.11-1.13.24-2.26.38-3.39C11.83,23.26,11.94,22.72,12,22.15ZM13.75,36.2l.37-.22a4,4,0,0,0,1.47-2.13,9.44,9.44,0,0,0,.35-3.7,20.87,20.87,0,0,0-.86-4.37,15.32,15.32,0,0,0-1.43-3.45l-.09-.16a.86.86,0,0,0,0,.28c.25,1.34.41,2.69.54,4a46,46,0,0,1,.25,5.11,17.21,17.21,0,0,1-.29,3.29C14,35.33,13.87,35.76,13.75,36.2Zm-3.43-.38L10,35.33a7,7,0,0,1-1-3.28,13.53,13.53,0,0,1,.16-3.18,21.76,21.76,0,0,1,1.58-5.59c.06-.16.14-.32.21-.48a.36.36,0,0,0-.13.11A15.92,15.92,0,0,0,8.22,28a9.81,9.81,0,0,0-.48,4.13,4.65,4.65,0,0,0,2.58,3.71ZM22.57,25a22.73,22.73,0,0,1-.79,3.68,18.46,18.46,0,0,1-2.1,4.82,7.52,7.52,0,0,1-2.32,2.41c-.31.19-.66.35-1,.51h0l.14,0a4.62,4.62,0,0,0,3-1A6.59,6.59,0,0,0,21.5,32.8a15.75,15.75,0,0,0,1.14-7.15C22.63,25.43,22.6,25.21,22.57,25Zm-7.9-2.21,0,0c.13.29.26.57.38.87a22.53,22.53,0,0,1,1.46,5.54,12.27,12.27,0,0,1,0,3.63,6,6,0,0,1-1.19,2.89s0,0,0,.08a4.66,4.66,0,0,0,2.4-2.94,7.19,7.19,0,0,0,0-3.42,16,16,0,0,0-2.43-5.82C15.1,23.34,14.88,23.06,14.67,22.78ZM22,23.91h0c-.1.27-.2.53-.31.79a54,54,0,0,1-3,6.23.63.63,0,0,0-.08.23c0,.35,0,.7-.07,1.05a5.29,5.29,0,0,1-1.41,3.07l-.08.1,0,0c.26-.21.54-.41.79-.64a9.72,9.72,0,0,0,2.15-3,21.71,21.71,0,0,0,1.93-6.54C21.93,24.76,21.94,24.33,22,23.91Zm-.5-.68,0,0-.22.25a43.17,43.17,0,0,0-3.26,4,.27.27,0,0,0,0,.2l.39,1.54c0,.11,0,.22.06.33l.07.36A48.47,48.47,0,0,0,21.47,23.23Zm-.89-.12-.1.05a15.76,15.76,0,0,0-3.26,2.42s0,.13,0,.18c.12.31.25.63.38.94l0,.07ZM19.34,23a13.64,13.64,0,0,0-2.81,1.4l.3.57Z" transform="translate(-1.24 -4.2)"/>
  <path d="M23.1,32.71l.21,0s0,0,0,.06Z" transform="translate(-1.24 -4.2)"/>
  <path class="cls-1" d="M27.09,35.06" transform="translate(-1.24 -4.2)"/>
</svg>
