<svg id="Capa_1" data-name="Capa 1" xmlns="http://www.w3.org/2000/svg" viewBox="0 0 34.56 35.05">
  <g>
    <path d="M19.27,36.51c-.69-.07-1.38-.12-2.07-.21a21.89,21.89,0,0,1-9.12-3,10.47,10.47,0,0,1-3.89-3.9,6.19,6.19,0,0,1-.81-3q0-2.31,0-4.62c0-.42.18-.63.51-.63s.5.23.51.63c0,.81,0,1.63.06,2.43a6.37,6.37,0,0,0,2,3.73A13.83,13.83,0,0,0,11,30.89c.14.06.28.11.41.18a.5.5,0,0,1,.32.69A.48.48,0,0,1,11,32c-.87-.4-1.75-.78-2.58-1.25a11.21,11.21,0,0,1-3.85-3.43.2.2,0,0,0-.08-.1,6.25,6.25,0,0,0,1.73,3.32A14,14,0,0,0,11.72,34,25.9,25.9,0,0,0,23.2,35.36a22.52,22.52,0,0,0,7.77-2,12.28,12.28,0,0,0,4.6-3.47,6.24,6.24,0,0,0,1.21-2.65l-.1.08a12.75,12.75,0,0,1-5.27,4.18,23.17,23.17,0,0,1-7.83,2.07,28.35,28.35,0,0,1-9.84-.69l-.26-.07a.51.51,0,0,1-.36-.64.5.5,0,0,1,.62-.34c1,.19,1.94.42,2.92.58a27.07,27.07,0,0,0,6.85.14A23,23,0,0,0,30.1,31a13.83,13.83,0,0,0,4.82-3.11,6.48,6.48,0,0,0,1.91-3.67,3.88,3.88,0,0,0,0-.77c-.4.85-1.26,1.11-1.94,1.6a6.65,6.65,0,0,0-.78.81c-.29.3-.56.62-.88.9a.5.5,0,0,1-.78-.08c-.17-.24-.1-.51.17-.74a5.69,5.69,0,0,0,.64-.66A4.25,4.25,0,0,1,35,23.78a2.06,2.06,0,0,0,1.14-1.55,18.55,18.55,0,0,1,.62-1.77,1.89,1.89,0,0,0,.14-.58c0-.87,0-1.75,0-2.73l-.31.43a11.27,11.27,0,0,1-2.93,2.79.51.51,0,0,1-.76-.08c-.19-.26-.11-.53.18-.77a22.47,22.47,0,0,0,2.08-1.81A6.07,6.07,0,0,0,36.41,11a11.33,11.33,0,0,0-4.66-5.56A18,18,0,0,0,24,2.7,24.44,24.44,0,0,0,15.73,3,16.2,16.2,0,0,0,7.28,7.32,9.64,9.64,0,0,0,4.54,12.2,6,6,0,0,0,6,17.62,13.25,13.25,0,0,0,11,21a25.28,25.28,0,0,0,11.19,1.75,24.54,24.54,0,0,0,7.47-1.52c.38-.15.76-.32,1.13-.48s.72-.11.85.19,0,.56-.41.74a23.85,23.85,0,0,1-6.62,1.87,28.31,28.31,0,0,1-7.47.07,21.43,21.43,0,0,1-9.74-3.42,12.12,12.12,0,0,1-3-3v.86c0,.37,0,.73,0,1.1a.53.53,0,0,1-.52.56.5.5,0,0,1-.5-.57c0-2.06-.06-4.11,0-6.16a9.23,9.23,0,0,1,2.28-5.5,15.86,15.86,0,0,1,7.55-5A24.1,24.1,0,0,1,22.05,1.5,21.78,21.78,0,0,1,29.14,3a14.79,14.79,0,0,1,7.15,5.56,9.41,9.41,0,0,1,1.62,5.35c0,4,0,7.94,0,11.91a7.66,7.66,0,0,1-2.64,5.93,16.63,16.63,0,0,1-6.82,3.69,26.17,26.17,0,0,1-6.08,1.05,2.2,2.2,0,0,0-.37,0Z" transform="translate(-3.36 -1.46)"/>
    <path d="M19.16,3.26a6.17,6.17,0,0,1,.86,0,1.36,1.36,0,0,1,1.13,1.35A1.3,1.3,0,0,1,20.06,6c-.69.11-1.4.12-2.1.2A15.11,15.11,0,0,0,11.4,8.46,1.4,1.4,0,1,1,9.87,6.13a17.41,17.41,0,0,1,7-2.61c.77-.12,1.54-.19,2.31-.28Zm-.08,1v0c-.71.08-1.43.15-2.13.26A16.6,16.6,0,0,0,10.47,7c-.22.15-.38.32-.19.59s.38.17.6,0a15.92,15.92,0,0,1,7-2.42c.6-.07,1.2-.1,1.8-.15.26,0,.42-.13.41-.4s-.18-.35-.42-.34Z" transform="translate(-3.36 -1.46)"/>
    <path d="M6.58,14.12a1.33,1.33,0,0,1-1.35-1.44,6.26,6.26,0,0,1,1.16-3,1.33,1.33,0,0,1,1.76-.3,1.38,1.38,0,0,1,.59,1.72l-.83,2.15A1.38,1.38,0,0,1,6.58,14.12Zm-.35-1.34c.08.08.18.25.32.3s.37-.07.42-.29a2.11,2.11,0,0,1,.09-.36c.23-.56.46-1.11.7-1.66.1-.22.07-.43-.15-.51a.5.5,0,0,0-.46.11A6.45,6.45,0,0,0,6.23,12.78Z" transform="translate(-3.36 -1.46)"/>
    <path d="M27,26.7a4.38,4.38,0,0,0-2.46.41,4,4,0,0,1-2.7.24c-.4-.1-.81-.13-1.22-.19a.49.49,0,0,1-.48-.55.47.47,0,0,1,.56-.46,14.54,14.54,0,0,1,1.59.24,2.68,2.68,0,0,0,1.7-.17,6.21,6.21,0,0,1,3.12-.57,4.89,4.89,0,0,0,.85-.08.52.52,0,0,1,.65.4.5.5,0,0,1-.42.6C27.76,26.64,27.33,26.67,27,26.7Z" transform="translate(-3.36 -1.46)"/>
    <path d="M12.22,26.2c0,.47-.35.72-.72.56a2.4,2.4,0,0,1-.73-.49,2.16,2.16,0,0,0-1.5-.7,1.94,1.94,0,0,1-1.61-.95,2.26,2.26,0,0,0-1.27-1,2.66,2.66,0,0,1-.77-.43.49.49,0,0,1-.11-.75.54.54,0,0,1,.74-.06,4.46,4.46,0,0,0,.79.39,2.47,2.47,0,0,1,1.29,1,1.52,1.52,0,0,0,1.34.79,2.31,2.31,0,0,1,1.5.65c.25.23.55.41.81.63A1.39,1.39,0,0,1,12.22,26.2Z" transform="translate(-3.36 -1.46)"/>
  </g>
</svg>
