<svg id="Capa_1" data-name="Capa 1" xmlns="http://www.w3.org/2000/svg" viewBox="0 0 188.51 188.5">
  <defs>
    <style>
      .cls-1 {
        fill: none;
      }

      .cls-2 {
        fill: #d63030;
      }
    </style>
  </defs>
  <g>
    <line class="cls-1" x1="178" y1="10.5" x2="101.67" y2="86.83"/>
    <line class="cls-1" x1="86.83" y1="101.67" x2="10.5" y2="178"/>
  </g>
  <line class="cls-1" x1="178" y1="178" x2="101.67" y2="101.67"/>
  <line class="cls-1" x1="86.83" y1="86.83" x2="10.5" y2="10.5"/>
  <path class="cls-2" d="M190.42,177.08a10.49,10.49,0,1,1-14.84,14.84L99.25,115.59,22.92,191.92A10.49,10.49,0,0,1,8.08,177.08l76.33-76.33L8.08,24.42A10.49,10.49,0,0,1,22.92,9.58L99.25,85.91,175.58,9.58a10.49,10.49,0,0,1,14.84,14.84l-76.33,76.33Z" transform="translate(-5 -6.5)"/>
</svg>
