<svg id="Capa_1" data-name="Capa 1" xmlns="http://www.w3.org/2000/svg" viewBox="0 0 27.84 52.75">
  <defs>
    <style>
      .cls-1 {
        stroke: #000;
        stroke-miterlimit: 10;
        stroke-width: 0.25px;
      }
    </style>
  </defs>
  <path d="M22.19,32.6a.65.65,0,0,0-.48-.47h-.27a5.83,5.83,0,0,0-.7.37c-.06.22-.13.46-.2.69a4.14,4.14,0,0,1,.94-.59c.15-.07.26,0,.29.16s.06.39.09.58a.14.14,0,0,0,0,.07.21.21,0,0,0,.19.12l.18-.65h0A1.07,1.07,0,0,0,22.19,32.6Z" transform="translate(-0.01 -0.06)"/>
  <path d="M21.85,34.15l0,.1a3.21,3.21,0,0,1-.08.36l.18-.58A.24.24,0,0,0,21.85,34.15Z" transform="translate(-0.01 -0.06)"/>
  <path d="M21.59,35c-.09.19-.2.35-.44.33h0s-.06,0-.1,0a3,3,0,0,0-.86.3.52.52,0,0,1,0-.22A.23.23,0,0,0,20,35.2a.14.14,0,0,0-.09,0c-.17.51-.34,1-.53,1.53l.6-.43a3,3,0,0,1,1-.46l.42-.08c.12-.36.23-.72.34-1.08A3.42,3.42,0,0,1,21.59,35Z" transform="translate(-0.01 -0.06)"/>
  <path d="M17.61,28.85a.76.76,0,0,0-.85.67c-.05.39-.1.8-.15,1.24-.08.72-.18,1.49-.27,2.29l.41,0,.4-.47a5.34,5.34,0,0,1,.42-.55,1.51,1.51,0,0,1,.49-.38c0-.24.05-.48.08-.73a9.56,9.56,0,0,1,.15-1.24A.76.76,0,0,0,17.61,28.85Z" transform="translate(-0.01 -0.06)"/>
  <path d="M17.61,28.85a.76.76,0,0,0-.85.67c-.05.39-.1.8-.15,1.24-.08.72-.18,1.49-.27,2.29l.41,0,.4-.47a5.34,5.34,0,0,1,.42-.55,1.51,1.51,0,0,1,.49-.38c0-.24.05-.48.08-.73a9.56,9.56,0,0,1,.15-1.24A.76.76,0,0,0,17.61,28.85Z" transform="translate(-0.01 -0.06)"/>
  <path d="M17.61,28.85a.76.76,0,0,0-.85.67c-.05.39-.1.8-.15,1.24-.08.72-.18,1.49-.27,2.29l.41,0,.4-.47a5.34,5.34,0,0,1,.42-.55,1.51,1.51,0,0,1,.49-.38c0-.24.05-.48.08-.73a9.56,9.56,0,0,1,.15-1.24A.76.76,0,0,0,17.61,28.85Z" transform="translate(-0.01 -0.06)"/>
  <path d="M17.34,34.8a4.38,4.38,0,0,0,0,.63c-.07,0-.08-.08-.11-.11l-.79-1.11-.09-.11a.24.24,0,0,0-.12-.05c0,.18-.05.35-.07.53l.79,1.11c-.07,0-.12,0-.17,0a2.74,2.74,0,0,0-.75-.18,3.32,3.32,0,0,1-.06.44,2.75,2.75,0,0,1,1.47.61c.14-1,.28-2,.43-3.16A3.7,3.7,0,0,0,17.34,34.8Z" transform="translate(-0.01 -0.06)"/>
  <path d="M17.61,28.85a.76.76,0,0,0-.85.67c-.05.39-.1.8-.15,1.24-.08.72-.18,1.49-.27,2.29l.41,0,.4-.47a5.34,5.34,0,0,1,.42-.55,1.51,1.51,0,0,1,.49-.38c0-.24.05-.48.08-.73a9.56,9.56,0,0,1,.15-1.24A.76.76,0,0,0,17.61,28.85Z" transform="translate(-0.01 -0.06)"/>
  <path d="M16.83,44a4.18,4.18,0,0,1-1-1.59c-.06-.16-.18-.22-.31-.17s-.16.17-.1.32a4.31,4.31,0,0,0,1.19,1.82c.12-.09.23-.19.34-.29Z" transform="translate(-0.01 -0.06)"/>
  <path d="M16.85,38a.3.3,0,0,1-.18,0,2.16,2.16,0,0,1-1-.21c0,.15-.06.3-.08.45a2.59,2.59,0,0,0,.42.14c.07,0,.16,0,.23.06a3.41,3.41,0,0,0-.71,1c0,.06-.08.07-.13.09h-.06c0,.17-.07.32-.1.47s.06,0,0,.12a4.23,4.23,0,0,0-.11,1.42c0,.16.1.25.24.25s.21-.1.21-.27a5,5,0,0,1,0-.67,3,3,0,0,1,1.26-2.35l.27-.19c0-.2.07-.41.1-.62Z" transform="translate(-0.01 -0.06)"/>
  <path d="M17.34,34.8a4.38,4.38,0,0,0,0,.63c-.07,0-.08-.08-.11-.11l-.79-1.11-.09-.11a.24.24,0,0,0-.12-.05c0,.18-.05.35-.07.53l.79,1.11c-.07,0-.12,0-.17,0a2.74,2.74,0,0,0-.75-.18,3.32,3.32,0,0,1-.06.44,2.75,2.75,0,0,1,1.47.61c.14-1,.28-2,.43-3.16A3.7,3.7,0,0,0,17.34,34.8Z" transform="translate(-0.01 -0.06)"/>
  <path d="M17.23,41.52a.24.24,0,0,0-.14,0,1.07,1.07,0,0,1-.13.19h0a.71.71,0,0,0,.41.6c.18.07.28,0,.28-.19A.73.73,0,0,0,17.23,41.52Z" transform="translate(-0.01 -0.06)"/>
  <path d="M17.61,28.85a.76.76,0,0,0-.85.67c-.05.39-.1.8-.15,1.24-.08.72-.18,1.49-.27,2.29l.41,0,.4-.47a5.34,5.34,0,0,1,.42-.55,1.51,1.51,0,0,1,.49-.38c0-.24.05-.48.08-.73a9.56,9.56,0,0,1,.15-1.24A.76.76,0,0,0,17.61,28.85Z" transform="translate(-0.01 -0.06)"/>
  <path d="M18.39,39.21l-.24.5a.55.55,0,0,0,.2.15c.17.06.27,0,.27-.2A.66.66,0,0,0,18.39,39.21Z" transform="translate(-0.01 -0.06)"/>
  <path d="M16.85,38a.3.3,0,0,1-.18,0,2.16,2.16,0,0,1-1-.21c0,.15-.06.3-.08.45a2.59,2.59,0,0,0,.42.14c.07,0,.16,0,.23.06a3.41,3.41,0,0,0-.71,1c0,.06-.08.07-.13.09h-.06c0,.17-.07.32-.1.47s.06,0,0,.12a4.23,4.23,0,0,0-.11,1.42c0,.16.1.25.24.25s.21-.1.21-.27a5,5,0,0,1,0-.67,3,3,0,0,1,1.26-2.35l.27-.19c0-.2.07-.41.1-.62Z" transform="translate(-0.01 -0.06)"/>
  <path d="M17.34,34.8a4.38,4.38,0,0,0,0,.63c-.07,0-.08-.08-.11-.11l-.79-1.11-.09-.11a.24.24,0,0,0-.12-.05c0,.18-.05.35-.07.53l.79,1.11c-.07,0-.12,0-.17,0a2.74,2.74,0,0,0-.75-.18,3.32,3.32,0,0,1-.06.44,2.75,2.75,0,0,1,1.47.61c.14-1,.28-2,.43-3.16A3.7,3.7,0,0,0,17.34,34.8Z" transform="translate(-0.01 -0.06)"/>
  <path d="M17.23,41.52a.24.24,0,0,0-.14,0,1.07,1.07,0,0,1-.13.19h0a.71.71,0,0,0,.41.6c.18.07.28,0,.28-.19A.73.73,0,0,0,17.23,41.52Z" transform="translate(-0.01 -0.06)"/>
  <path d="M17.61,28.85a.76.76,0,0,0-.85.67c-.05.39-.1.8-.15,1.24-.08.72-.18,1.49-.27,2.29l.41,0,.4-.47a5.34,5.34,0,0,1,.42-.55,1.51,1.51,0,0,1,.49-.38c0-.24.05-.48.08-.73a9.56,9.56,0,0,1,.15-1.24A.76.76,0,0,0,17.61,28.85Z" transform="translate(-0.01 -0.06)"/>
  <path d="M18.39,39.21l-.24.5a.55.55,0,0,0,.2.15c.17.06.27,0,.27-.2A.66.66,0,0,0,18.39,39.21Z" transform="translate(-0.01 -0.06)"/>
  <path d="M26.36,19.18a6.55,6.55,0,0,0-1.16-6.79,11,11,0,0,0-.87-.94A3.24,3.24,0,0,0,23,5.92a7.2,7.2,0,0,1,2.9-4.46.77.77,0,0,0,.2-1.07.78.78,0,0,0-1-.22,8.54,8.54,0,0,0-3.6,5.73,3.26,3.26,0,0,0-2.28,2l-1.66-1a4.93,4.93,0,0,1-2.19-5.72.78.78,0,0,0-.46-1,.79.79,0,0,0-.48,0,13.76,13.76,0,0,0-3.42,1.68C8.8,3.34,7.68,5.19,7.69,7.25A8.53,8.53,0,0,0,5.9,8.8a5.39,5.39,0,0,0-1.41,3.74,6.8,6.8,0,0,0-2.82,4.88,7.09,7.09,0,0,0,.07,1.78,2.42,2.42,0,0,0,.4,4.72c.27.26,1.13,1.29,2.15,4.49.24.77.5,1.7.8,2.79a56.91,56.91,0,0,0,3,9,11.06,11.06,0,0,0,3.28,4.37,2.41,2.41,0,0,0-.27,3.07L7.55,49.42a1.79,1.79,0,0,0,.78,3.39H19.46A1.8,1.8,0,0,0,21.24,51a1.76,1.76,0,0,0-1-1.6l-3.55-1.78a2.39,2.39,0,0,0,.4-1.63l-.69-.46c-.89-.63-1.8-2.21-2.5-4.65-.29.14-1.52-.51-1.66-.6a1.64,1.64,0,0,1-.82-1.21,1.67,1.67,0,0,1,.49-1.39l.19-.19c-.37-2.24-.66-4.7-.9-6.75-.13-1.1-.24-2.05-.35-2.84a36.14,36.14,0,0,0-.76-4.13h7.64A20.31,20.31,0,0,0,17.26,26a.77.77,0,0,0,.63.89H18a.76.76,0,0,0,.76-.64,17,17,0,0,1,.55-2.45h4.44a19.52,19.52,0,0,0-1.69,4h0c-.25.8-.51,1.75-.82,2.85l-.15.54.12-.05h.62l.13,0a1.58,1.58,0,0,1,.63.33c0-.1.06-.2.08-.3.3-1.09.55-2,.8-2.79,1-3.2,1.87-4.23,2.15-4.49a2.41,2.41,0,0,0,2.13-2.4l.08-.15A2.44,2.44,0,0,0,26.36,19.18ZM22.15,7.31a1.7,1.7,0,0,1,1,3.08,26,26,0,0,0-2.64-1.78A1.69,1.69,0,0,1,22.15,7.31ZM7.9,8.82l0,0a6.12,6.12,0,0,0,2.88,3.31,26.63,26.63,0,0,0,5.7,2.25A.77.77,0,1,0,17,12.89c-3.85-1.2-7.48-2.33-7.75-5.44,0-.12,0-.24,0-.35A5,5,0,0,1,11.78,3a11,11,0,0,1,1.77-1,6.86,6.86,0,0,0,0,1.11,6.7,6.7,0,0,0,3,4.92c.59.42,1.32.85,2.09,1.3a19.68,19.68,0,0,1,5.32,4A5.07,5.07,0,0,1,24.73,19H21.56C11.69,19,7.15,16.11,6.2,13.44A4.14,4.14,0,0,1,7.9,8.82Zm5.18,36.39h1.65a.88.88,0,0,1,.78,1,.87.87,0,0,1-.78.78H13.08a.88.88,0,0,1-.78-1A.87.87,0,0,1,13.08,45.21Zm-.5,3.24a2.24,2.24,0,0,0,.52.06h1.65a2.24,2.24,0,0,0,.52-.06l4.33,2.17a.25.25,0,0,1,.13.22.26.26,0,0,1-.24.25H8.37a.25.25,0,0,1-.12-.47Zm-.93-5.81c-2.46-2.34-4.07-8.18-5.12-12h0c-.3-1.1-.57-2.05-.82-2.85a18.76,18.76,0,0,0-1.69-4h4.4a24.67,24.67,0,0,1,.85,4.34c.1.78.21,1.72.34,2.81C10.31,36.53,10.88,40.36,11.65,42.64Zm13.81-20.4h-23a.88.88,0,1,1-.19-1.75H7.39a.77.77,0,1,0,0-1.54H3.32A5.2,5.2,0,0,1,4.9,14.09c.89,2.28,3.2,3.68,5,4.46a30.14,30.14,0,0,0,11.74,1.94h3.82a.88.88,0,0,1,.78,1A.87.87,0,0,1,25.46,22.24Z" transform="translate(-0.01 -0.06)"/>
  <path d="M18.39,39.21l-.24.5a.55.55,0,0,0,.2.15c.17.06.27,0,.27-.2A.66.66,0,0,0,18.39,39.21Z" transform="translate(-0.01 -0.06)"/>
  <path d="M17.61,28.85a.76.76,0,0,0-.85.67c-.05.39-.1.8-.15,1.24-.08.72-.18,1.49-.27,2.29l.41,0,.4-.47a5.34,5.34,0,0,1,.42-.55,1.51,1.51,0,0,1,.49-.38c0-.24.05-.48.08-.73a9.56,9.56,0,0,1,.15-1.24A.76.76,0,0,0,17.61,28.85Z" transform="translate(-0.01 -0.06)"/>
  <path d="M17.23,41.52a.24.24,0,0,0-.14,0,1.07,1.07,0,0,1-.13.19h0a.71.71,0,0,0,.41.6c.18.07.28,0,.28-.19A.73.73,0,0,0,17.23,41.52Z" transform="translate(-0.01 -0.06)"/>
  <path d="M17.34,34.8a4.38,4.38,0,0,0,0,.63c-.07,0-.08-.08-.11-.11l-.79-1.11-.09-.11a.24.24,0,0,0-.12-.05c0,.18-.05.35-.07.53l.79,1.11c-.07,0-.12,0-.17,0a2.74,2.74,0,0,0-.75-.18,3.32,3.32,0,0,1-.06.44,2.75,2.75,0,0,1,1.47.61c.14-1,.28-2,.43-3.16A3.7,3.7,0,0,0,17.34,34.8Z" transform="translate(-0.01 -0.06)"/>
  <path d="M16.85,38a.3.3,0,0,1-.18,0,2.16,2.16,0,0,1-1-.21c0,.15-.06.3-.08.45a2.59,2.59,0,0,0,.42.14c.07,0,.16,0,.23.06a3.41,3.41,0,0,0-.71,1c0,.06-.08.07-.13.09h-.06c0,.17-.07.32-.1.47s.06,0,0,.12a4.23,4.23,0,0,0-.11,1.42c0,.16.1.25.24.25s.21-.1.21-.27a5,5,0,0,1,0-.67,3,3,0,0,1,1.26-2.35l.27-.19c0-.2.07-.41.1-.62Z" transform="translate(-0.01 -0.06)"/>
  <path d="M17.61,28.85a.76.76,0,0,0-.85.67c-.05.39-.1.8-.15,1.24-.08.72-.18,1.49-.27,2.29l.41,0,.4-.47a5.34,5.34,0,0,1,.42-.55,1.51,1.51,0,0,1,.49-.38c0-.24.05-.48.08-.73a9.56,9.56,0,0,1,.15-1.24A.76.76,0,0,0,17.61,28.85Z" transform="translate(-0.01 -0.06)"/>
  <path d="M17.34,34.8a4.38,4.38,0,0,0,0,.63c-.07,0-.08-.08-.11-.11l-.79-1.11-.09-.11a.24.24,0,0,0-.12-.05c0,.18-.05.35-.07.53l.79,1.11c-.07,0-.12,0-.17,0a2.74,2.74,0,0,0-.75-.18,3.32,3.32,0,0,1-.06.44,2.75,2.75,0,0,1,1.47.61c.14-1,.28-2,.43-3.16A3.7,3.7,0,0,0,17.34,34.8Z" transform="translate(-0.01 -0.06)"/>
  <path d="M17.61,28.85a.76.76,0,0,0-.85.67c-.05.39-.1.8-.15,1.24-.08.72-.18,1.49-.27,2.29l.41,0,.4-.47a5.34,5.34,0,0,1,.42-.55,1.51,1.51,0,0,1,.49-.38c0-.24.05-.48.08-.73a9.56,9.56,0,0,1,.15-1.24A.76.76,0,0,0,17.61,28.85Z" transform="translate(-0.01 -0.06)"/>
  <path d="M17.34,34.8a4.38,4.38,0,0,0,0,.63c-.07,0-.08-.08-.11-.11l-.79-1.11-.09-.11a.24.24,0,0,0-.12-.05c0,.18-.05.35-.07.53l.79,1.11c-.07,0-.12,0-.17,0a2.74,2.74,0,0,0-.75-.18,3.32,3.32,0,0,1-.06.44,2.75,2.75,0,0,1,1.47.61c.14-1,.28-2,.43-3.16A3.7,3.7,0,0,0,17.34,34.8Z" transform="translate(-0.01 -0.06)"/>
  <path d="M17.61,28.85a.76.76,0,0,0-.85.67c-.05.39-.1.8-.15,1.24-.08.72-.18,1.49-.27,2.29l.41,0,.4-.47a5.34,5.34,0,0,1,.42-.55,1.51,1.51,0,0,1,.49-.38c0-.24.05-.48.08-.73a9.56,9.56,0,0,1,.15-1.24A.76.76,0,0,0,17.61,28.85Z" transform="translate(-0.01 -0.06)"/>
  <path d="M17.61,28.85a.76.76,0,0,0-.85.67c-.05.39-.1.8-.15,1.24-.08.72-.18,1.49-.27,2.29l.41,0,.4-.47a5.34,5.34,0,0,1,.42-.55,1.51,1.51,0,0,1,.49-.38c0-.24.05-.48.08-.73a9.56,9.56,0,0,1,.15-1.24A.76.76,0,0,0,17.61,28.85Z" transform="translate(-0.01 -0.06)"/>
  <path d="M17.61,28.85a.76.76,0,0,0-.85.67c-.05.39-.1.8-.15,1.24-.08.72-.18,1.49-.27,2.29l.41,0,.4-.47a5.34,5.34,0,0,1,.42-.55,1.51,1.51,0,0,1,.49-.38c0-.24.05-.48.08-.73a9.56,9.56,0,0,1,.15-1.24A.76.76,0,0,0,17.61,28.85Z" transform="translate(-0.01 -0.06)"/>
  <path d="M17.61,28.85a.76.76,0,0,0-.85.67c-.05.39-.1.8-.15,1.24-.08.72-.18,1.49-.27,2.29l.41,0,.4-.47a5.34,5.34,0,0,1,.42-.55,1.51,1.51,0,0,1,.49-.38c0-.24.05-.48.08-.73a9.56,9.56,0,0,1,.15-1.24A.76.76,0,0,0,17.61,28.85Z" transform="translate(-0.01 -0.06)"/>
  <path d="M17.34,34.8a4.38,4.38,0,0,0,0,.63c-.07,0-.08-.08-.11-.11l-.79-1.11-.09-.11a.24.24,0,0,0-.12-.05c0,.18-.05.35-.07.53l.79,1.11c-.07,0-.12,0-.17,0a2.74,2.74,0,0,0-.75-.18,3.32,3.32,0,0,1-.06.44,2.75,2.75,0,0,1,1.47.61c.14-1,.28-2,.43-3.16A3.7,3.7,0,0,0,17.34,34.8Z" transform="translate(-0.01 -0.06)"/>
  <g>
    <path class="cls-1" d="M25.82,38.35a4.36,4.36,0,0,0-3-2.93,5.66,5.66,0,0,0-.84-.14l.09-.2a2.81,2.81,0,0,0,.23-.86.2.2,0,0,0-.18-.23.19.19,0,0,0-.17,0,.24.24,0,0,0-.07.12l0,.1a3.21,3.21,0,0,1-.08.36.25.25,0,0,0,0,.07,3.42,3.42,0,0,1-.13.34c-.09.19-.2.35-.44.33h0s-.06,0-.1,0a3,3,0,0,0-.86.3.52.52,0,0,1,0-.22A.23.23,0,0,0,20,35.2a.14.14,0,0,0-.09,0c-.08,0-.13.07-.16.16s0,.21-.07.31a.82.82,0,0,1-.34.55c-.3.18-.58.4-.87.61-.08.07-.13.07-.2,0a2.82,2.82,0,0,1-.51-1.93,3.38,3.38,0,0,1,.82-1.8c.15-.19.26-.19.41,0a4.13,4.13,0,0,1,.69,1.45c.05.17.16.24.29.2a.14.14,0,0,0,.1-.07.17.17,0,0,0,.05-.16.31.31,0,0,0,0-.09A3,3,0,0,0,20,34a.21.21,0,0,1,0-.24,2.63,2.63,0,0,1,.51-.54,4.14,4.14,0,0,1,.94-.59c.15-.07.26,0,.29.16s.06.39.09.58a.14.14,0,0,0,0,.07.21.21,0,0,0,.19.12h0a.22.22,0,0,0,.2-.23l0-.29s0-.09,0-.13h0a1.07,1.07,0,0,0-.06-.27.65.65,0,0,0-.48-.47h-.27a5.83,5.83,0,0,0-.7.37,3.54,3.54,0,0,0-.95.82c-.06.07-.09,0-.12,0a4.51,4.51,0,0,0-.35-.54.63.63,0,0,0-1,0,5,5,0,0,0-.48.66,3.7,3.7,0,0,0-.51,1.44,4.38,4.38,0,0,0,0,.63c-.07,0-.08-.08-.11-.11l-.79-1.11-.09-.11a.24.24,0,0,0-.12-.05.17.17,0,0,0-.15,0,.2.2,0,0,0-.08.27,1.3,1.3,0,0,0,.1.15l.06.08.79,1.11c-.07,0-.12,0-.17,0a2.74,2.74,0,0,0-.75-.18h-.08a4.24,4.24,0,0,0-1.83.29.63.63,0,0,0-.32,1l.37.48s.08.08,0,.12a4.17,4.17,0,0,0-1.51,1,.64.64,0,0,0,.13,1,4.89,4.89,0,0,0,.51.26c.16.08.28,0,.34-.08s0-.24-.15-.32-.32-.15-.47-.24-.17-.21-.06-.33a3.57,3.57,0,0,1,1.54-1,.19.19,0,0,1,.22,0,3,3,0,0,0,.9.53,2.59,2.59,0,0,0,.42.14c.07,0,.16,0,.23.06a3.41,3.41,0,0,0-.71,1c0,.06-.08.07-.13.09h-.06a2.8,2.8,0,0,1-1,0c-.17,0-.28.05-.3.18s.07.23.24.26a3,3,0,0,0,.9,0h.06s.06,0,0,.12a4.23,4.23,0,0,0-.11,1.42c0,.16.1.25.24.25s.21-.1.21-.27a5,5,0,0,1,0-.67,3,3,0,0,1,1.26-2.35l.27-.19c.75-.55,1.51-1.09,2.27-1.63l.6-.43a3,3,0,0,1,1-.46,2.07,2.07,0,0,1,.42-.08,2.36,2.36,0,0,1,.75,0,3.84,3.84,0,0,1,3.21,2.56,9.25,9.25,0,0,1,.5,2.39c.05.4.05.81.07,1.22a.24.24,0,0,0,.24.25c.13,0,.2-.11.2-.26A11.61,11.61,0,0,0,25.82,38.35Zm-7.89-1.11-.7.5-.38.27a.3.3,0,0,1-.18,0,2.68,2.68,0,0,1-1.5-.48,4.2,4.2,0,0,1-1-1.07c-.11-.15-.06-.27.12-.34a3.84,3.84,0,0,1,1.26-.27,2,2,0,0,1,.43,0,2.75,2.75,0,0,1,1.47.61l.19.18a2.64,2.64,0,0,1,.34.41S18,37.19,17.93,37.24Z" transform="translate(-0.01 -0.06)"/>
    <g>
      <path d="M26.32,42.86c0,.13,0,.26,0,.4a8.75,8.75,0,0,1-.64,2.62,2.23,2.23,0,0,1-2.09,1.35,10.22,10.22,0,0,1-2.27-.42,14.47,14.47,0,0,1-3.83-1.76L17,44.73a4.08,4.08,0,0,1-.39-.31A4.31,4.31,0,0,1,15.4,42.6c-.06-.15,0-.27.1-.32s.25,0,.31.17a4.18,4.18,0,0,0,1,1.59l.1.09a4.83,4.83,0,0,0,.68.51l.33.2a14.24,14.24,0,0,0,4.25,1.75,4.68,4.68,0,0,0,1.58.17,1.76,1.76,0,0,0,1.54-1.23,10.06,10.06,0,0,0,.56-2.6.69.69,0,0,1,0-.13.21.21,0,0,1,.25-.17A.21.21,0,0,1,26.32,42.86Z" transform="translate(-0.01 -0.06)"/>
      <path d="M23.55,47.35a10.07,10.07,0,0,1-2.3-.42,14.46,14.46,0,0,1-3.87-1.78,5.62,5.62,0,0,1-.47-.32c-.16-.12-.29-.22-.4-.32a4.38,4.38,0,0,1-1.23-1.87.34.34,0,0,1,.17-.47.32.32,0,0,1,.27,0,.42.42,0,0,1,.21.24,3.93,3.93,0,0,0,1,1.54L17,44a4.26,4.26,0,0,0,.68.5l.32.2a14.26,14.26,0,0,0,4.22,1.74l.13,0a4.2,4.2,0,0,0,1.4.14,1.64,1.64,0,0,0,1.44-1.15,10,10,0,0,0,.56-2.57.57.57,0,0,1,0-.12.34.34,0,0,1,.4-.29.33.33,0,0,1,.28.35h0a1.1,1.1,0,0,1,0,.18,1.8,1.8,0,0,1,0,.22,8.49,8.49,0,0,1-.65,2.66A2.35,2.35,0,0,1,23.55,47.35Zm-8-5h-.05s-.08,0,0,.15a4.34,4.34,0,0,0,1.16,1.78c.11.09.22.19.38.3a5.41,5.41,0,0,0,.47.31,14,14,0,0,0,3.8,1.75,10.24,10.24,0,0,0,2.24.42,2.1,2.1,0,0,0,2-1.28,8.62,8.62,0,0,0,.63-2.58,1.79,1.79,0,0,1,0-.23c0-.05,0-.11,0-.16s-.06-.1-.08-.11a.09.09,0,0,0-.11.08.58.58,0,0,0,0,.1,9.86,9.86,0,0,1-.56,2.64,1.9,1.9,0,0,1-1.65,1.31,4.31,4.31,0,0,1-1.48-.14l-.13,0A14.22,14.22,0,0,1,17.88,45l-.34-.21a4.61,4.61,0,0,1-.69-.52l-.11-.09a4.36,4.36,0,0,1-1-1.64.2.2,0,0,0-.07-.1Z" transform="translate(-0.01 -0.06)"/>
    </g>
    <g>
      <path d="M23.71,40.57c0,.17-.11.25-.28.19a.74.74,0,0,1-.42-.61c0-.16.09-.23.25-.18A.73.73,0,0,1,23.71,40.57Z" transform="translate(-0.01 -0.06)"/>
      <path d="M23.54,40.9a.44.44,0,0,1-.15,0,.88.88,0,0,1-.51-.73.36.36,0,0,1,.12-.27.33.33,0,0,1,.29,0,.85.85,0,0,1,.54.72h0a.31.31,0,0,1-.13.28A.23.23,0,0,1,23.54,40.9Zm-.37-.82h0a.12.12,0,0,0,0,.08.63.63,0,0,0,.34.48c.06,0,.09,0,.09,0s0,0,0-.08h0a.63.63,0,0,0-.36-.49Z" transform="translate(-0.01 -0.06)"/>
    </g>
    <g>
      <path d="M25.2,43.06c0,.19-.1.26-.27.19a.72.72,0,0,1-.42-.6c0-.17.1-.23.25-.19A.74.74,0,0,1,25.2,43.06Z" transform="translate(-0.01 -0.06)"/>
      <path d="M25,43.4l-.15,0a.85.85,0,0,1-.5-.73.27.27,0,0,1,.12-.26.29.29,0,0,1,.29,0,.86.86,0,0,1,.53.71h0a.32.32,0,0,1-.13.29A.22.22,0,0,1,25,43.4Zm-.37-.83h0a.31.31,0,0,0,0,.07.62.62,0,0,0,.34.49.16.16,0,0,0,.09,0s0,0,0-.09h0a.63.63,0,0,0-.35-.48Z" transform="translate(-0.01 -0.06)"/>
    </g>
    <g>
      <path d="M21,41.23c0,.19-.09.26-.27.2a.75.75,0,0,1-.42-.61c0-.17.1-.23.26-.18A.74.74,0,0,1,21,41.23Z" transform="translate(-0.01 -0.06)"/>
      <path d="M20.85,41.57a.31.31,0,0,1-.15,0,.83.83,0,0,1-.5-.73.29.29,0,0,1,.12-.26.32.32,0,0,1,.29,0,.85.85,0,0,1,.53.71h0a.34.34,0,0,1-.13.3A.28.28,0,0,1,20.85,41.57Zm-.37-.82h0a.17.17,0,0,0,0,.07.58.58,0,0,0,.33.49c.06,0,.09,0,.09,0s0,0,0-.09h0a.59.59,0,0,0-.35-.47Z" transform="translate(-0.01 -0.06)"/>
    </g>
    <g>
      <path d="M24.42,37.61c0,.18-.09.25-.26.19a.75.75,0,0,1-.43-.6c0-.18.11-.25.27-.19A.72.72,0,0,1,24.42,37.61Z" transform="translate(-0.01 -0.06)"/>
      <path d="M24.27,37.94l-.15,0a.86.86,0,0,1-.51-.72.32.32,0,0,1,.13-.29.34.34,0,0,1,.31,0,.84.84,0,0,1,.5.7h0a.34.34,0,0,1-.12.29A.25.25,0,0,1,24.27,37.94Zm-.38-.83h0s0,0,0,.08a.59.59,0,0,0,.34.48.13.13,0,0,0,.08,0s0,0,0-.08h0a.63.63,0,0,0-.34-.48Z" transform="translate(-0.01 -0.06)"/>
    </g>
    <g>
      <path d="M18.62,39.66c0,.19-.1.26-.27.2a.55.55,0,0,1-.2-.15.63.63,0,0,1-.22-.46q0-.26.27-.18a.54.54,0,0,1,.19.13h0A.66.66,0,0,1,18.62,39.66Z" transform="translate(-0.01 -0.06)"/>
      <path d="M18.46,40a.41.41,0,0,1-.15,0,.94.94,0,0,1-.5-.74.31.31,0,0,1,.12-.26.33.33,0,0,1,.31,0,1,1,0,0,1,.24.16l0,0a.73.73,0,0,1,.23.5.27.27,0,0,1-.28.34Zm-.36-.82h0a.33.33,0,0,0,0,.08.56.56,0,0,0,.18.36.5.5,0,0,0,.17.13h.08a.17.17,0,0,0,0-.09.58.58,0,0,0-.19-.36l0,0-.11-.06Z" transform="translate(-0.01 -0.06)"/>
    </g>
    <g>
      <path d="M18.2,44c0-.18.09-.25.26-.19a.69.69,0,0,1,.42.6c0,.18-.09.24-.25.19A.7.7,0,0,1,18.2,44Z" transform="translate(-0.01 -0.06)"/>
      <path d="M18.73,44.76l-.14,0a.84.84,0,0,1-.52-.71h0a.3.3,0,0,1,.43-.31.86.86,0,0,1,.51.72.37.37,0,0,1-.12.28A.25.25,0,0,1,18.73,44.76Zm-.38-.83h0a.41.41,0,0,0,0,.09h0a.6.6,0,0,0,.35.48s.07,0,.07,0,0,0,0-.08a.59.59,0,0,0-.34-.48A.12.12,0,0,0,18.35,43.93Z" transform="translate(-0.01 -0.06)"/>
    </g>
    <g>
      <path d="M24.22,45.63c0,.19-.1.26-.27.19a.74.74,0,0,1-.42-.61c0-.17.1-.23.26-.18A.72.72,0,0,1,24.22,45.63Z" transform="translate(-0.01 -0.06)"/>
      <path d="M24.07,46a.41.41,0,0,1-.17,0,.82.82,0,0,1-.49-.73.29.29,0,0,1,.42-.28.84.84,0,0,1,.52.71h0a.32.32,0,0,1-.13.29A.21.21,0,0,1,24.07,46Zm-.4-.83a.17.17,0,0,0,0,.07.58.58,0,0,0,.33.49.13.13,0,0,0,.09,0s0,0,0-.09h0a.6.6,0,0,0-.35-.48c-.06,0-.08,0-.08,0Z" transform="translate(-0.01 -0.06)"/>
    </g>
    <g>
      <path d="M21.57,38c0,.18-.09.24-.26.19a.75.75,0,0,1-.43-.61c0-.17.1-.24.26-.18A.72.72,0,0,1,21.57,38Z" transform="translate(-0.01 -0.06)"/>
      <path d="M21.42,38.32a.4.4,0,0,1-.15,0,.83.83,0,0,1-.51-.72.3.3,0,0,1,.12-.27.31.31,0,0,1,.3,0,.86.86,0,0,1,.52.72h0a.34.34,0,0,1-.13.28A.25.25,0,0,1,21.42,38.32ZM21,37.49h0a.17.17,0,0,0,0,.07.59.59,0,0,0,.34.49c.06,0,.08,0,.08,0a.12.12,0,0,0,0-.08h0a.66.66,0,0,0-.35-.49Z" transform="translate(-0.01 -0.06)"/>
    </g>
    <g>
      <path d="M21.92,44.39c0,.18-.09.25-.25.2a.7.7,0,0,1-.44-.63c0-.15.09-.21.24-.17A.74.74,0,0,1,21.92,44.39Z" transform="translate(-0.01 -0.06)"/>
      <path d="M21.76,44.73a.32.32,0,0,1-.13,0,.81.81,0,0,1-.52-.76.32.32,0,0,1,.12-.25.28.28,0,0,1,.27,0,.82.82,0,0,1,.54.71h0a.32.32,0,0,1-.12.29A.23.23,0,0,1,21.76,44.73Zm-.38-.83h0a.32.32,0,0,0,0,.06.62.62,0,0,0,.35.51.19.19,0,0,0,.08,0,.28.28,0,0,0,0-.08.58.58,0,0,0-.36-.49Z" transform="translate(-0.01 -0.06)"/>
    </g>
    <g>
      <path d="M17.65,42.11c0,.19-.1.26-.28.19a.71.71,0,0,1-.41-.6h0a.17.17,0,0,1,.13-.19.24.24,0,0,1,.14,0A.73.73,0,0,1,17.65,42.11Z" transform="translate(-0.01 -0.06)"/>
      <path d="M17.49,42.45l-.16,0a.85.85,0,0,1-.49-.72.29.29,0,0,1,.22-.32.32.32,0,0,1,.21,0,.84.84,0,0,1,.5.71c0,.17-.06.26-.12.29A.25.25,0,0,1,17.49,42.45Zm-.37-.83h0s0,0,0,.07a.62.62,0,0,0,.33.49.15.15,0,0,0,.1,0,.17.17,0,0,0,0-.09.6.6,0,0,0-.34-.47Z" transform="translate(-0.01 -0.06)"/>
    </g>
  </g>
  <path d="M16.93,44.13l-.1-.09a4.18,4.18,0,0,1-1-1.59c-.06-.16-.18-.22-.31-.17s-.16.17-.1.32a4.31,4.31,0,0,0,1.19,1.82,4.08,4.08,0,0,0,.39.31l.47.32.16-.41A4.83,4.83,0,0,1,16.93,44.13Zm1.46-4.92h0a.54.54,0,0,0-.19-.13q-.25-.07-.27.18a.63.63,0,0,0,.22.46.55.55,0,0,0,.2.15c.17.06.27,0,.27-.2A.66.66,0,0,0,18.39,39.21Zm-1.16,2.31a.24.24,0,0,0-.14,0,.17.17,0,0,0-.13.19h0a.71.71,0,0,0,.41.6c.18.07.28,0,.28-.19A.73.73,0,0,0,17.23,41.52Zm4.48-9.39h-.27a5.83,5.83,0,0,0-.7.37,3.54,3.54,0,0,0-.95.82c-.06.07-.09,0-.12,0a4.51,4.51,0,0,0-.35-.54.63.63,0,0,0-1,0,5,5,0,0,0-.48.66,3.7,3.7,0,0,0-.51,1.44,4.38,4.38,0,0,0,0,.63c-.07,0-.08-.08-.11-.11l-.79-1.11-.09-.11a.24.24,0,0,0-.12-.05.17.17,0,0,0-.15,0,.2.2,0,0,0-.08.27,1.3,1.3,0,0,0,.1.15l.06.08.79,1.11c-.07,0-.12,0-.17,0a2.74,2.74,0,0,0-.75-.18h-.08a4.24,4.24,0,0,0-1.83.29.63.63,0,0,0-.32,1l.37.48s.08.08,0,.12a4.17,4.17,0,0,0-1.51,1,.64.64,0,0,0,.13,1,4.89,4.89,0,0,0,.51.26c.16.08.28,0,.34-.08s0-.24-.15-.32-.32-.15-.47-.24-.17-.21-.06-.33a3.57,3.57,0,0,1,1.54-1,.19.19,0,0,1,.22,0,3,3,0,0,0,.9.53,2.59,2.59,0,0,0,.42.14c.07,0,.16,0,.23.06a3.41,3.41,0,0,0-.71,1c0,.06-.08.07-.13.09h-.06a2.8,2.8,0,0,1-1,0c-.17,0-.28.05-.3.18s.07.23.24.26a3,3,0,0,0,.9,0h.06s.06,0,0,.12a4.23,4.23,0,0,0-.11,1.42c0,.16.1.25.24.25s.21-.1.21-.27a5,5,0,0,1,0-.67,3,3,0,0,1,1.26-2.35l.27-.19c.75-.55,1.51-1.09,2.27-1.63l.6-.43a3,3,0,0,1,1-.46l.18-.49s-.06,0-.1,0a3,3,0,0,0-.86.3.52.52,0,0,1,0-.22A.23.23,0,0,0,20,35.2a.14.14,0,0,0-.09,0c-.08,0-.13.07-.16.16s0,.21-.07.31a.82.82,0,0,1-.34.55c-.3.18-.58.4-.87.61-.08.07-.13.07-.2,0a2.82,2.82,0,0,1-.51-1.93,3.38,3.38,0,0,1,.82-1.8c.15-.19.26-.19.41,0a4.13,4.13,0,0,1,.69,1.45c.05.17.16.24.29.2a.14.14,0,0,0,.1-.07.17.17,0,0,0,.05-.16.31.31,0,0,0,0-.09A3,3,0,0,0,20,34a.21.21,0,0,1,0-.24,2.63,2.63,0,0,1,.51-.54,4.14,4.14,0,0,1,.94-.59c.15-.07.26,0,.29.16s.06.39.09.58a.14.14,0,0,0,0,.07l.31-.81A.65.65,0,0,0,21.71,32.13Zm-3.76,5s0,.08,0,.13l-.7.5-.38.27a.3.3,0,0,1-.18,0,2.68,2.68,0,0,1-1.5-.48,4.2,4.2,0,0,1-1-1.07c-.11-.15-.06-.27.12-.34a3.84,3.84,0,0,1,1.26-.27,2,2,0,0,1,.43,0,2.75,2.75,0,0,1,1.47.61l.19.18A2.64,2.64,0,0,1,18,37.11Z" transform="translate(-0.01 -0.06)"/>
</svg>
