<svg id="Capa_1" data-name="Capa 1" xmlns="http://www.w3.org/2000/svg" viewBox="0 0 39.92 27.55">
  <path d="M40.66,23.66a13.65,13.65,0,0,1-.57,1.55,4.87,4.87,0,0,1-2,2c-.3.18-.6.37-.9.54a.59.59,0,1,1-.61-1l1.35-.85a3.36,3.36,0,0,0,1.53-2.38c.14-.87-.23-1.28-1.1-1.33a17.8,17.8,0,0,0-5.75.88,43,43,0,0,1-7.41,1.16,50.25,50.25,0,0,1-7.95.08A46.76,46.76,0,0,1,6.87,22.54a12.58,12.58,0,0,0-4.1-.35.86.86,0,0,0-.86,1A3.26,3.26,0,0,0,3.4,25.83a20.73,20.73,0,0,0,5.16,2.62,7.88,7.88,0,0,0,2.36.39c6.51,0,13,0,19.54,0a7.87,7.87,0,0,0,3.13-.68,3.66,3.66,0,0,1,.55-.21.56.56,0,0,1,.72.36.53.53,0,0,1-.31.71,9.54,9.54,0,0,1-3.31.95l-.62.05c0,.26,0,.49-.06.72A1.7,1.7,0,0,1,29,32.21H13c-1.51,0-2.09-.54-2.18-2,0,0,0-.08,0-.06a18.88,18.88,0,0,1-2.31-.46,21.13,21.13,0,0,1-5.88-3A4.3,4.3,0,0,1,.74,23.23,2,2,0,0,1,2.82,21c.83,0,1.66,0,2.49,0,0-.33-.12-.65-.15-1a3.24,3.24,0,0,1,1.16-2.77.58.58,0,0,0,.21-.66,5.67,5.67,0,0,1,0-2.32,2.66,2.66,0,0,0,0-.69,2.08,2.08,0,0,1,.43-1.39,14.79,14.79,0,0,1,1.14-1.47.58.58,0,0,1,.89-.1c.27.25.22.56-.06.93a16.65,16.65,0,0,0-1.12,1.53c-.23.37-.13.68.29.8a1.79,1.79,0,0,0,1,0,2.82,2.82,0,0,1,2.69.12,1.44,1.44,0,0,0,1.34,0c.48-.2,1-.37,1.46-.54.14-.36.26-.78.45-1.17a11.67,11.67,0,0,1,.68-1.1,5.23,5.23,0,0,0-4.26-1l-.34.05c-.39,0-.65-.14-.69-.47a.53.53,0,0,1,.47-.65A11.71,11.71,0,0,1,13.2,9c1.37.13,1.65.3,3.35,1.35.66-.35,1.29-.67,1.91-1a.41.41,0,0,0,.2-.28,2.09,2.09,0,0,1,2.2-1.83.57.57,0,0,0,.51-.27,6.59,6.59,0,0,1,2.71-2.16c.45-.18.77-.09.92.25s0,.62-.45.82a5.67,5.67,0,0,0-2.24,1.78c.2.57.37,1,.55,1.53a.43.43,0,0,0,.19.21c.58.33,1.18.64,1.81,1A6.57,6.57,0,0,1,27.7,9a6.49,6.49,0,0,1,7.06,3.73,1.43,1.43,0,0,1,.12.45A17.94,17.94,0,0,1,34.94,16a1.92,1.92,0,0,0,.53,1.76,3.06,3.06,0,0,1,.63,3.1,1,1,0,0,0,0,.2h2.41a2.06,2.06,0,0,1,2.12,1.51.75.75,0,0,0,.07.12ZM25,20.94c.56-.07,1.1-.12,1.63-.21.82-.14,1.63-.31,2.45-.45.3-.06.58,0,.65.34a.91.91,0,0,1-.13.62c-.07.12-.29.18-.45.21-.91.17-1.83.34-2.75.49s-2,.33-2.95.47a4,4,0,0,1-.92,0c-.3,0-.59-.09-.89-.09a40.3,40.3,0,0,1-9.36-.87c-.52-.11-.76-.36-.7-.72s.39-.55.93-.43a37.64,37.64,0,0,0,6.52.83c.67,0,1.33,0,2,0l-.13-1.25a36,36,0,0,1-9.06-1.23c0,.11,0,.2-.05.29a2,2,0,0,1-2,1.82,2,2,0,0,1-2-1.83c0-.38,0-.77-.06-1.16A2.22,2.22,0,0,0,6.6,20.91a1,1,0,0,0,.67.53c.42.1.82.24,1.24.35A47.55,47.55,0,0,0,19,23.2a47.42,47.42,0,0,0,15.17-1.79,1.13,1.13,0,0,0,.58-.45,2.25,2.25,0,0,0-2.92-3.18A12.72,12.72,0,0,1,28.45,19c-1.11.24-2.24.43-3.37.64Zm-9.25-6a5.09,5.09,0,0,0,.81,3.1.88.88,0,0,0,.78.46c1.35,0,2.69.12,4,.18.5,0,.71.22.72.72,0,.25,0,.49,0,.74a2.22,2.22,0,0,0,.13.68.84.84,0,0,0,.9.46.91.91,0,0,0,.74-.93c0-.42,0-.86,0-1.28a1.28,1.28,0,0,1,.37-.57c.15-.17.39-.25.51-.43a5.26,5.26,0,0,0,.54-1,4.49,4.49,0,0,0,.3-2.11,3.05,3.05,0,0,1-2.41-.12,1.36,1.36,0,0,0-1,.07,3,3,0,0,1-3.08,0,1.51,1.51,0,0,0-1.07-.05A3,3,0,0,1,15.76,15Zm3.18-4.57a5.3,5.3,0,0,0-3,2.75.48.48,0,0,0,.23.71,1.24,1.24,0,0,0,1.17,0A2.73,2.73,0,0,1,20,14a1.34,1.34,0,0,0,1.38,0,2.81,2.81,0,0,1,2.75-.11,1.17,1.17,0,0,0,1.09,0,.49.49,0,0,0,.25-.74,5.15,5.15,0,0,0-2.64-2.58.34.34,0,0,0-.46.09,2.66,2.66,0,0,1-.7.55A2.12,2.12,0,0,1,18.94,10.39Zm7.78,3.07c.53.2,1,.34,1.44.53a1.44,1.44,0,0,0,1.41,0,2.78,2.78,0,0,1,2.72-.1,1.2,1.2,0,0,0,1.09,0,.5.5,0,0,0,.25-.77,5.14,5.14,0,0,0-4.66-3,4.89,4.89,0,0,0-3.32,1.13A4.49,4.49,0,0,1,26.72,13.46ZM7.52,14.94l.15,1.54.22,0c.74-.14,1,0,1,.78,0,.4,0,.8,0,1.2,0,.75.33,1.18.89,1.17s.88-.42.88-1.19c0-1.14.18-1.25,1.29-.95s2.18.53,3.39.81a6.54,6.54,0,0,1-.72-3.55,4.2,4.2,0,0,0-.63.21,2.73,2.73,0,0,1-2.92,0,1.28,1.28,0,0,0-1.2-.06A2.77,2.77,0,0,1,7.52,14.94ZM12,30.05c-.08.8.1,1,.86,1h15.7c.74,0,1-.26.82-1ZM26.11,18.22l.56-.1a15,15,0,0,0,4-1.08,4.3,4.3,0,0,1,3.11-.54l.12-1.56a2.78,2.78,0,0,1-2.35-.08,1.3,1.3,0,0,0-1.24.11,2.68,2.68,0,0,1-2.77,0,5.76,5.76,0,0,0-.71-.25A6.46,6.46,0,0,1,26.11,18.22Zm-6.28-8.9a.94.94,0,0,0,.92.91,1,1,0,0,0,.94-1,.94.94,0,0,0-1-.92A.92.92,0,0,0,19.83,9.32Z" transform="translate(-0.74 -4.68)"/>
</svg>
