<svg xmlns="http://www.w3.org/2000/svg" viewBox="0 0 27.85 52.63">
  <g id="OBJECTS">
    <path d="M565.39,529.19A2.44,2.44,0,0,0,563.9,527a6.56,6.56,0,0,0-1.16-6.79,11,11,0,0,0-.87-.94,3.24,3.24,0,0,0-1.37-5.53,7.21,7.21,0,0,1,2.9-4.46.77.77,0,0,0-.84-1.29,8.56,8.56,0,0,0-3.6,5.73,3.26,3.26,0,0,0-2.28,2c-.62-.37-1.2-.72-1.66-1a4.93,4.93,0,0,1-2.19-5.72.77.77,0,0,0-.94-1,13.71,13.71,0,0,0-3.42,1.68c-2.13,1.48-3.25,3.33-3.24,5.39a8.79,8.79,0,0,0-1.79,1.55,5.37,5.37,0,0,0-1.41,3.74,6.8,6.8,0,0,0-2.82,4.88,7.09,7.09,0,0,0,.07,1.78,2.42,2.42,0,0,0,.4,4.72c.27.26,1.13,1.29,2.15,4.49.24.77.5,1.7.8,2.79a57,57,0,0,0,3,9,11,11,0,0,0,3.28,4.37,2.43,2.43,0,0,0-.7,1.7,2.4,2.4,0,0,0,.43,1.37l-3.55,1.78a1.77,1.77,0,0,0-1,1.6,1.79,1.79,0,0,0,1.78,1.79H557a1.79,1.79,0,0,0,1.78-1.79,1.76,1.76,0,0,0-1-1.6l-3.55-1.78a2.43,2.43,0,0,0-.28-3.07,10.88,10.88,0,0,0,3.28-4.37,57.09,57.09,0,0,0,3-9c.3-1.09.55-2,.8-2.79,1-3.2,1.87-4.23,2.15-4.49a2.41,2.41,0,0,0,2.13-2.4Zm-5.7-14.06a1.7,1.7,0,0,1,1,3.08,26.57,26.57,0,0,0-2.64-1.78,1.7,1.7,0,0,1,1.65-1.3Zm-14.2,1.49a6.1,6.1,0,0,0,2.88,3.31,26.46,26.46,0,0,0,5.7,2.25.77.77,0,1,0,.46-1.47c-3.85-1.2-7.48-2.33-7.75-5.44h0c-.14-1.68.71-3.18,2.54-4.45a10.91,10.91,0,0,1,1.77-1,5.87,5.87,0,0,0,0,1.11,6.69,6.69,0,0,0,3,4.92c.59.42,1.32.85,2.09,1.3a19.76,19.76,0,0,1,5.32,4,5.07,5.07,0,0,1,.77,5.64h-3.17c-9.87,0-14.41-2.86-15.36-5.53a4.13,4.13,0,0,1,1.7-4.62Zm-1.38,21.84c-.3-1.1-.57-2.05-.82-2.85a18.71,18.71,0,0,0-1.69-4H546a25,25,0,0,1,.85,4.34c.1.78.21,1.72.34,2.81.66,5.59,1.23,9.42,2,11.7-2.46-2.34-4.07-8.18-5.12-12Zm13.16,20.2a.25.25,0,0,1-.24.25H545.91a.25.25,0,0,1-.25-.25.24.24,0,0,1,.13-.22l4.33-2.17a2.24,2.24,0,0,0,.52.06h1.65a2.24,2.24,0,0,0,.52-.06l4.33,2.17a.24.24,0,0,1,.13.22Zm-5-5.63a.88.88,0,0,1,0,1.75h-1.65a.88.88,0,0,1,0-1.75Zm7.35-17.42c-.25.8-.51,1.75-.82,2.85-1.05,3.82-2.66,9.66-5.12,12,.77-2.27,1.34-6.11,2-11.7,0-.43.1-.85.15-1.24a.77.77,0,1,0-1.53-.18c-.05.39-.1.8-.15,1.24-.3,2.56-.68,5.76-1.19,8.37-.71,3.68-1.35,4.4-1.51,4.52-.17-.12-.81-.84-1.52-4.52-.51-2.61-.89-5.81-1.19-8.37-.13-1.1-.24-2.05-.35-2.84a35.58,35.58,0,0,0-.76-4.13h7.64a20.38,20.38,0,0,0-.47,2.19.77.77,0,0,0,.63.89h.13a.77.77,0,0,0,.76-.64,16.8,16.8,0,0,1,.55-2.45h4.44a19.25,19.25,0,0,0-1.69,4Zm3.34-5.55H540a.88.88,0,1,1,0-1.75h4.93a.77.77,0,0,0,0-1.54h-4.07a5.18,5.18,0,0,1,1.58-4.86c.89,2.28,3.2,3.68,5,4.46a30,30,0,0,0,11.74,1.94H563a.88.88,0,0,1,0,1.75Zm0,0" transform="translate(-537.54 -507.82)"/>
  </g>
</svg>
