<svg id="Capa_1" data-name="Capa 1" xmlns="http://www.w3.org/2000/svg" viewBox="0 0 403.1 403.31">
  <path d="M144.41,656.42c-28.32,0-45.67-19.63-48.16-39a3.91,3.91,0,0,0-.58-1.54v-10.7c.66-2.5,1.28-5,1.88-7.5,1.35-5.48,2.74-11.14,4.53-16.5,19.31-57.62,56.87-99.69,111.63-125,4.15-1.92,8.4-3.57,12.89-5.31,2.12-.83,4.27-1.66,6.44-2.54l4.34-1.75-3.56-3-1.5-1.27c-.94-.8-1.8-1.52-2.64-2.26-31.6-27.83-43.69-61.81-35.92-101,8.42-42.45,34.64-70.22,77.92-82.52A101.19,101.19,0,0,1,283.85,254c1.85-.29,3.77-.58,5.66-.92H305c1.89.34,3.81.63,5.66.92a101.19,101.19,0,0,1,12.17,2.39c43.34,12.32,69.55,40.09,77.9,82.54,7.74,39.34-4.35,73.32-35.94,101-.84.74-1.69,1.46-2.59,2.23l-4.91,4.2,4.26,1.77c2.25.93,4.49,1.82,6.71,2.7,5.27,2.1,10.26,4.07,15,6.5a20.77,20.77,0,0,1,7.86,6.95c2.67,4.16,1.85,10-2,14.3a12.42,12.42,0,0,1-9.44,4.22,15.8,15.8,0,0,1-5.35-1c-3.23-1.18-6.53-2.45-9.71-3.69a204.1,204.1,0,0,0-23.56-8,182.72,182.72,0,0,0-44.59-5.68c-27.35,0-54.32,6.66-80.16,19.78-34.07,17.3-60.45,43.63-78.4,78.26a171.85,171.85,0,0,0-15.52,44.21,19,19,0,0,0,2.88,14.79,19.45,19.45,0,0,0,13.07,8.13,39.92,39.92,0,0,0,6.42.36H336c7.3,0,12.08,2.82,14.23,8.39A13,13,0,0,1,349.1,650a13.14,13.14,0,0,1-10,6.18c-.95.09-1.93.11-2.77.11h-3.08q-27.23,0-54.45-.07t-54.46-.06c-30.87,0-56.09.09-79.35.3Zm152.77-377a79.56,79.56,0,0,0-79.41,79.46c0,43,35.66,79.36,78,79.43h.13c45.18,0,80.7-34.79,80.85-79.2a79.72,79.72,0,0,0-79.35-79.69Z" transform="translate(-95.67 -253.11)"/>
  <path d="M425.73,656.29a13,13,0,0,1-7-2.17c-4.11-2.59-6.12-6.44-6.12-11.76q0-13.68,0-27.36V596.36h-19l-10.76,0c-6.66,0-12.06,0-17-.09A13,13,0,0,1,353,585.36a12.77,12.77,0,0,1,7.67-14,20.59,20.59,0,0,1,7.14-1.21c5.78-.06,11.94-.08,20-.08h24.9V562.9q0-5.86,0-11.73c0-9.1,0-18.5.07-27.74a13,13,0,0,1,10.87-13,12,12,0,0,1,2.25-.21A12.72,12.72,0,0,1,437.62,518a20.11,20.11,0,0,1,1.24,7.12c.1,9.28.09,18.72.07,27.85,0,3.34,0,6.68,0,10v7.11h33.14q6.31,0,12.63,0c8.26.06,14.06,5.43,14.09,13.06s-5.85,13.11-14,13.16q-7.69.06-15.38,0H438.91v2.83q0,6.54,0,12.94c0,10.56,0,20.54,0,30.7a12.6,12.6,0,0,1-7,11.82A13.09,13.09,0,0,1,425.73,656.29Z" transform="translate(-95.67 -253.11)"/>
</svg>
