<svg xmlns="http://www.w3.org/2000/svg" viewBox="0 0 41.25 37.9">
  <defs>
    <style>
      .cls-1 {
        font-size: 21px;
        font-family: BebasNeue-Regular, Bebas Neue;
      }

      .cls-2 {
        fill: none;
        stroke: #000;
        stroke-miterlimit: 10;
        stroke-width: 0.94px;
      }
    </style>
  </defs>
  <g id="OBJECTS">
    <path d="M703,529.57a1.12,1.12,0,0,0-1,1.27l1.94,25.83a3.58,3.58,0,0,0,3.4,3.49h30.61a3.58,3.58,0,0,0,3.4-3.49l1.89-25.43a1.47,1.47,0,0,0-1.35-1.67C735.26,529.56,708.74,529.56,703,529.57Zm36.18,26.83a1.35,1.35,0,0,1-1.27,1.31H707.28a1.3,1.3,0,0,1-1.24-1.26l-2-25,0-.05h37l0,.05Z" transform="translate(-701.93 -522.26)"/>
    <path d="M3.26,0H38a3.26,3.26,0,0,1,3.26,3.26V5.74a0,0,0,0,1,0,0H0a0,0,0,0,1,0,0V3.26A3.26,3.26,0,0,1,3.26,0Z"/>
    <text class="cls-1" transform="translate(7.5 29.2)">1/4</text>
    <rect class="cls-2" x="2.09" y="12.73" width="37.12" height="18.86" rx="5.48"/>
  </g>
</svg>
