<svg id="Capa_1" data-name="Capa 1" xmlns="http://www.w3.org/2000/svg" viewBox="0 0 129.46 171.3">
  <path d="M130,52.85C128.21,47,119.51,42,117.45,41c-8-3.65-16.2-7.41-24.08-11L89.14,28,72.83,20.51c-11.29-5.21-23-10.6-34.52-15.83l-.54-.27C36.11,3.57,31.06,1,26.63,1h-.45a14.37,14.37,0,0,0-12.5,9.78c-1.83,5.49-.66,10.4,3.66,15.07a5.2,5.2,0,0,1,1,3.74C12.71,71.25,7,113.48,1.23,155.1c-.52,3.77-.17,6.45,1.12,8.63a57,57,0,0,0,4.77,6.08L11.8,172h.38a4.63,4.63,0,0,1,.65,0H13a13.56,13.56,0,0,0,2.84.3,13.83,13.83,0,0,0,10.58-4.92q7.38-8.25,14.78-16.56V139.71l-2.31,2.58a2.65,2.65,0,0,1-.58.47l-1,.61L19,94,50.67,82.31l.35.93,2.06,5.56a17.74,17.74,0,0,1,5.49-7.43l-1-2.81,1.24-.17a15.54,15.54,0,0,0,2.18-.45l8.68-3.16c8.1-2.94,16.49-6,24.59-9.22A9.5,9.5,0,0,1,104.38,67l.77.66-1.86,2.11c-1.35,1.55-2.71,3.09-4,4.64a4.43,4.43,0,0,0-1.22,3.18l.36-.09.61-.15h4.48l.69.2.34.1c.47.09.94.19,1.4.31,1.77-1.92,3.44-3.75,5-5.71a4.38,4.38,0,0,1,3.44-1.7,3.69,3.69,0,0,1,.64,0c.4,0,.8,0,1.19,0h0A14.22,14.22,0,0,0,130,52.85ZM19.77,118.66l1.07,2.91c3.18,8.66,6.47,17.63,9.8,26.4a3.9,3.9,0,0,1-.89,4.61c-1.45,1.57-2.88,3.18-4.31,4.79s-3,3.39-4.51,5a6.9,6.9,0,0,1-5.33,2.51,6.74,6.74,0,0,1-3-.72,6.73,6.73,0,0,1-4.1-7.33C9.9,146,11.41,135,12.88,124.29l1.83-13.37,2.18-.62L18,113.59C18.57,115.25,19.15,117,19.77,118.66ZM18.18,85.59,25.67,31l1,.21c4,.79,6.4,3,7.76,7.05,2.84,8.24,6,16.54,9,24.56,1.08,2.87,2.16,5.74,3.19,8.53a11.9,11.9,0,0,0,1.14,1.91l.78,1.07Zm37-14.13L43,38.48l45.4,20.91ZM122.38,59.2a6.84,6.84,0,0,1-6.23,4,6.92,6.92,0,0,1-2.21-.37v0c-.57-.2-1.1-.44-1.62-.67l-.79-.35L25,22a7.87,7.87,0,0,1-4.41-4.49A6.79,6.79,0,0,1,21.14,12a6.64,6.64,0,0,1,5.95-3.67A6.54,6.54,0,0,1,29,8.65,24.07,24.07,0,0,1,32,9.83l85.21,39.24a25.61,25.61,0,0,1,2.61,1.33A6.71,6.71,0,0,1,122.38,59.2Z" transform="translate(-1 -1)"/>
  <path d="M130.31,110.49a7.72,7.72,0,0,0-8-7.2c-3.15,0-6.3,0-9.44,0H112c.5-.94,1-1.76,1.38-2.62a13,13,0,0,0-9.81-18.15l-.25,0a4.83,4.83,0,0,1-.5-.16H99.64c-1,.25-2,.44-2.92.78a11.1,11.1,0,0,0-3,1.64A12.29,12.29,0,0,0,91.44,87c-.21.27-.41.54-.6.83a18,18,0,0,0-1.19,2c-.72,1.45-1.38,2.92-2,4.41-.13.31-.27.61-.4.92-.39.9-.77,1.8-1.17,2.69-.11.25-.22.51-.41.93-.63-1.55-1.18-2.94-1.77-4.31a31.62,31.62,0,0,0-4.2-7.7,11.34,11.34,0,0,0-7.61-4.32,1.88,1.88,0,0,1-.39-.16H68.52a31,31,0,0,0-4.29,1.36,12.86,12.86,0,0,0-3.79,2.73,13,13,0,0,0-1.59,16c.17.26.32.53.54.93H57.65c-3.18,0-6.36-.09-9.53.13l-.34,0c-.22,0-.44,0-.66.08A7.54,7.54,0,0,0,41,109.87a2.21,2.21,0,0,1-.14.41v7.16a8.49,8.49,0,0,0,2.78,4.91l0,0a7.69,7.69,0,0,0,1.71,1.08,1.06,1.06,0,0,1,.72,1.17v5.6c0,1.29,0,2.58,0,3.86,0,1.86,0,3.72,0,5.57v23.77a8,8,0,0,0,2.21,5.95A7.88,7.88,0,0,0,50.67,171a8.71,8.71,0,0,0,3.62.79q31.38.07,62.75,0c4.78,0,8.11-3.44,8.11-8.3q0-19.35,0-38.71a1.26,1.26,0,0,1,.83-1.37,7.25,7.25,0,0,0,4.33-6.13A37.67,37.67,0,0,0,130.31,110.49ZM95.07,91a7,7,0,0,1,7.86-3.3,7.83,7.83,0,0,1-1.24,15.5l-.55,0c-3.8.17-7.62,0-11.58,0,.65-1.65,1.2-3.21,1.88-4.71.79-1.73,1.58-3.48,2.42-5.19.32-.65.65-1.3,1-1.94Zm-31.26-.5a8.42,8.42,0,0,1,.77-.82c2.8-2.63,7.32-2.95,9.91-.68a10.47,10.47,0,0,1,2.57,3.37c1.63,3.46,3.06,7,4.56,10.56a1.38,1.38,0,0,1,0,.33H76.4c-.94,0-1.89,0-2.84,0a43.15,43.15,0,0,1-4.83-.19,7.18,7.18,0,0,1-6.29-5.42,7.39,7.39,0,0,1,.21-5.32A7.51,7.51,0,0,1,63.81,90.53Zm11.31,76c-.27,0-.55,0-.83,0H54.54c-2.17,0-3.15-1-3.15-3.15V124.3H75.12Zm0-47.5H49.37c-2.27,0-3.22-1-3.22-3.25,0-1.51,0-3,0-4.54a2.57,2.57,0,0,1,2.61-2.69H74.88a2,2,0,0,1,.25.06Zm15.71,47.5H80.45V108.6H90.84Zm29.07-3.22c0,2.33-.93,3.26-3.29,3.26H96.2V124.3h23.71Zm5.24-47.06a2.6,2.6,0,0,1-2.72,2.77H96.58c-.11,0-.22,0-.4,0V108.53H122c2.24,0,3.2,1,3.21,3.17C125.16,113.21,125.17,114.73,125.15,116.24Z" transform="translate(-1 -1)"/>
</svg>
