<svg id="Capa_1" data-name="Capa 1" xmlns="http://www.w3.org/2000/svg" viewBox="0 0 129.45 171.3">
  <path d="M15.79,172.3A13.56,13.56,0,0,1,13,172h-.12a4.63,4.63,0,0,0-.65,0H11.8l-4.68-2.15a57,57,0,0,1-4.77-6.08c-1.29-2.18-1.64-4.86-1.12-8.63C7,113.48,12.71,71.25,18.36,29.6a5.2,5.2,0,0,0-1-3.74c-4.32-4.67-5.49-9.58-3.66-15.07A14.37,14.37,0,0,1,26.18,1h.45c4.43,0,9.48,2.57,11.14,3.41l.54.27C49.86,9.91,61.54,15.3,72.83,20.51L89.14,28,93.37,30c7.88,3.64,16,7.4,24.08,11.05C119.51,42,128.21,47,130,52.85a14.22,14.22,0,0,1-13.76,17.76h0c-.39,0-.79,0-1.19,0a3.69,3.69,0,0,0-.64,0,4.38,4.38,0,0,0-3.44,1.7c-1.67,2.06-3.42,4-5.28,6l-.86,1a4.58,4.58,0,0,1-3.27,1.68,3.39,3.39,0,0,1-2.31-1c-1.61-1.51-1.6-3.56,0-5.49,1.31-1.55,2.67-3.09,4-4.64l1.86-2.11-.77-.66a9.5,9.5,0,0,0-10.17-1.4c-8.1,3.24-16.49,6.28-24.59,9.22l-8.68,3.16a15.54,15.54,0,0,1-2.18.45l-1.24.17,11.19,30.07,2.06-2.28c.92-1,1.9-2.09,2.88-3.16a4.69,4.69,0,0,1,3.3-1.73,3.4,3.4,0,0,1,2.3,1C81,104,81,106,79.17,108c-17.45,19.72-35.22,39.7-52.8,59.37A13.83,13.83,0,0,1,15.79,172.3Zm-1.08-61.38-1.83,13.37C11.41,135,9.9,146,8.46,156.85a6.73,6.73,0,0,0,4.1,7.33,6.74,6.74,0,0,0,3,.72,6.9,6.9,0,0,0,5.33-2.51c1.51-1.63,3-3.35,4.51-5s2.86-3.22,4.31-4.79a3.9,3.9,0,0,0,.89-4.61c-3.33-8.77-6.62-17.74-9.8-26.4l-1.07-2.91c-.62-1.68-1.2-3.41-1.76-5.07l-1.12-3.29ZM19,94l18.22,49.37,1-.61a2.65,2.65,0,0,0,.58-.47l4.2-4.7c6.07-6.81,12.35-13.84,18.46-20.81l0-.06,0-.06a4,4,0,0,0,.47-3.28c-.71-2.24-1.54-4.43-2.34-6.56-.27-.71-.54-1.42-.8-2.14l-.06-.22C56.22,97.3,53.57,90.12,51,83.24l-.35-.93Zm-.83-8.41L48.55,74.32l-.78-1.07a11.9,11.9,0,0,1-1.14-1.91c-1-2.79-2.11-5.66-3.19-8.53-3-8-6.13-16.32-9-24.56-1.36-4.08-3.75-6.26-7.76-7l-1-.21Zm37-14.13L88.36,59.39,43,38.48Zm58.8-8.59a6.92,6.92,0,0,0,2.21.37,6.84,6.84,0,0,0,6.23-4,6.71,6.71,0,0,0-2.6-8.8,25.61,25.61,0,0,0-2.61-1.33L32,9.83A24.07,24.07,0,0,0,29,8.65a6.54,6.54,0,0,0-1.95-.29A6.64,6.64,0,0,0,21.14,12a6.79,6.79,0,0,0-.57,5.44A7.87,7.87,0,0,0,25,22l86.55,39.87.79.35c.52.23,1.05.47,1.62.67Z" transform="translate(-1 -1)"/>
  <path d="M93.47,93.07A4.62,4.62,0,1,1,91.3,86.9,4.61,4.61,0,0,1,93.47,93.07Z" transform="translate(-1 -1)"/>
  <path d="M89.3,94.69a3.53,3.53,0,0,1-1.56-.36,3.62,3.62,0,0,1,1.57-6.88,3.53,3.53,0,0,1,1.56.36,3.62,3.62,0,0,1-1.57,6.88Z" transform="translate(-1 -1)"/>
</svg>
