<svg id="Capa_1" data-name="Capa 1" xmlns="http://www.w3.org/2000/svg" viewBox="0 0 346.05 426.29">
  <path d="M220.06,649.24c-2.77-.75-5.57-1.43-8.31-2.28-20.36-6.31-34.66-25.5-35.7-47.87-.11-2.35-.1-4.71-.1-7.07q0-118.59.1-237.16c0-3.89-1.22-5.42-4.7-6.72-15.53-5.77-25.67-23.12-23.46-39.55,2.39-17.76,16.59-31.84,33.76-33.14,16.89-1.28,33.82-.4,50.73-.43,3.82,0,4.62-1.14,4.48-4.68-.35-8.33-.1-16.68,3.71-24.39,7.31-14.81,19.46-22.58,35.83-22.77q44.3-.48,88.62,0c19.25.19,33.75,12,38.41,30.7,1.42,5.68,1.32,11.57,1.07,17.38-.13,3,.9,3.73,3.77,3.71,15-.13,30-.1,44.93-.05s26.84,5.71,35,18.6C500.27,312.65,491.4,340,470.23,348c-3.64,1.39-4.87,3.09-4.87,7.06q.21,119,.11,238c0,16.52-4.63,31.16-16.88,42.78a47.91,47.91,0,0,1-24.87,12.55c-.8.15-1.69,0-2.24.83ZM195.92,475.7q0,58.47,0,116.94a63.56,63.56,0,0,0,.7,9.94c2.51,15.54,14.6,26.59,29.92,26.63q94,.21,188.09,0c10.22,0,18.39-4.42,24.38-12.83,5.06-7.11,6.44-15.19,6.44-23.64q0-118.38.1-236.77c0-4.18-1-5.3-5.22-5.29q-119.83.21-239.69,0c-3.67,0-4.86.78-4.85,4.71C196,395.53,195.92,435.62,195.92,475.7ZM320.77,330.87H451.4a61.5,61.5,0,0,0,6.22-.27,17.53,17.53,0,0,0,15.75-19c-.87-10.53-8.54-16.67-20.93-16.67q-131.67,0-263.33,0a40.27,40.27,0,0,0-6.21.44,17.79,17.79,0,0,0-1.84,34.79,37.44,37.44,0,0,0,8.67.71Q255.25,330.9,320.77,330.87Zm0-56H372c14.08,0,14.08,0,12.35-14.32-1.24-10.25-8.65-17.41-18.89-17.46q-44.73-.23-89.47,0c-10.7.05-18.49,7.87-19.15,18.6-.19,3,.16,6.12-.15,9.14-.35,3.42,1.05,4.12,4.2,4.1C280.86,274.84,300.83,274.91,320.8,274.91Z" transform="translate(-147.59 -222.95)"/>
  <path d="M271.72,481.48q0,46,0,91.91c0,2.94-.07,5.83-1.91,8.34a9.34,9.34,0,0,1-9.39,4.06c-4-.61-6.87-2.86-8-6.9a19,19,0,0,1-.68-4.91q0-92.11,0-184.24a13.9,13.9,0,0,1,1.35-6.84,9.28,9.28,0,0,1,9.62-5.14c4.34.39,7.07,2.81,8.44,6.87a19,19,0,0,1,.55,6.18Z" transform="translate(-147.59 -222.95)"/>
  <path d="M310.72,481.65q0-46,0-91.91c0-7.22,3.14-11.4,8.83-12a9.39,9.39,0,0,1,10.63,7.7,22.66,22.66,0,0,1,.49,4.93q0,91.29,0,182.57a23.85,23.85,0,0,1-.55,5.34,9.71,9.71,0,0,1-19-.21,26.7,26.7,0,0,1-.36-5.37Q310.71,527.19,310.72,481.65Z" transform="translate(-147.59 -222.95)"/>
  <path d="M369.63,482q0-45.53,0-91.07c0-8.62,3.34-13.14,9.74-13.25s10.23,4.64,10.24,13.28q0,90.87,0,181.73c0,8.64-3.76,13.48-10.26,13.31s-9.71-4.7-9.71-13.34Q369.62,527.3,369.63,482Z" transform="translate(-147.59 -222.95)"/>
</svg>
