<svg id="Capa_1" data-name="Capa 1" xmlns="http://www.w3.org/2000/svg" viewBox="0 0 409.04 408.98">
  <defs>
    <style>
      .cls-1 {
        fill: #fefefe;
      }
    </style>
  </defs>
  <path class="cls-1" d="M193.79,636.43c-13.86-2.59-22.45-10.93-25.12-24.89-.64-3.34-2.08-4.18-5.22-4.11-9.21.19-16.69-3.17-21.83-11.18-1.54-2.4-1.59-5.15-2.45-7.71,1.1,1.11,1,2.69,1.65,4,4,8.67,10.76,13.4,20.36,13.93a17.14,17.14,0,0,0,3.36,0c3.14-.44,4.43.28,5,4,1.87,12.92,9.55,21.17,22,25C192.29,635.74,193.33,635.4,193.79,636.43Z" transform="translate(-93.12 -227.45)"/>
  <path d="M502.16,448.63c-1.85,7-4.38,13.62-9.78,18.82a34.11,34.11,0,0,1-17.07,8.93,10.34,10.34,0,0,1-6-19.69c1-.42,2-.64,3-1,6-2.08,8.89-5.81,9-12.17.15-7.72.14-15.44,0-23.16-.12-6.93-3.54-11.18-10.45-12.59-8.59-1.76-17.23-3.31-25.91-4.59-6.12-.91-9.46-4.1-11.57-9.91-3.71-10.21-7.88-20.27-12.43-30.13-2.51-5.43-2.6-10,1-14.85,5-6.73,9.7-13.66,14.48-20.55,4.87-7,4.39-12.39-1.64-18.51q-7.15-7.25-14.4-14.39c-6.25-6.18-11.55-6.61-18.83-1.54-6.88,4.78-13.79,9.53-20.56,14.46-4.6,3.35-9,3.37-14.16,1.05q-15.4-6.92-31.24-12.89c-5.17-1.95-8.18-5.06-9.06-10.48-1.32-8.13-2.81-16.23-4.17-24.36-1.57-9.28-5.72-12.86-15.1-12.88-6.79,0-13.58-.05-20.36,0-7.68.07-11.91,3.38-13.42,10.93-1.7,8.47-3.24,17-4.51,25.52-.91,6.13-4.17,9.42-10,11.51-10.09,3.64-20.06,7.71-29.77,12.27-5.73,2.7-10.46,2.7-15.54-1.1-6.49-4.86-13.23-9.39-19.89-14-7.41-5.15-12.65-4.66-19.13,1.76-4.81,4.78-9.64,9.55-14.38,14.41-5.69,5.82-6.19,11.22-1.61,17.89,4.89,7.12,9.82,14.23,14.91,21.22,3.36,4.61,3.3,9,1,14.16-4.58,10.14-8.87,20.43-12.76,30.85-2,5.49-5.29,8.6-11,9.49-8.14,1.25-16.25,2.73-24.37,4.15-8.82,1.54-12.4,5.77-12.42,14.68,0,6.79,0,13.57,0,20.36,0,8.11,3.38,12.3,11.39,13.87,8.35,1.63,16.72,3.14,25.13,4.4,5.94.89,9.26,4,11.35,9.65,3.8,10.32,8,20.5,12.58,30.5,2.41,5.27,2.57,9.76-.91,14.51-5,6.86-9.85,13.88-14.69,20.88s-4.3,12.27,1.52,18.21q7.41,7.56,15,15c5.8,5.66,11.21,6.12,17.9,1.52,7.12-4.9,14.22-9.84,21.22-14.91,4.62-3.35,9-3.23,14.17-.91q15.21,6.85,30.86,12.72c5.31,2,8.46,5.11,9.34,10.71,1.29,8.14,2.79,16.24,4.17,24.37,1.56,9.22,5.73,12.73,15.21,12.75H306.6c9.57,0,12.32-1.95,15.58-11,2.88-8,12-10.07,17.5-3.93a10,10,0,0,1,2.45,9.24c-3.33,15.2-15.38,25.64-31,26.29-8.9.37-17.84.37-26.74,0C268.17,635.52,256,624.6,253,608.42c-1.17-6.27-2-12.6-3.4-18.83a6.3,6.3,0,0,0-3-3.93c-7.13-3.22-14.39-6.18-21.69-9a5.26,5.26,0,0,0-4.18.42c-5.45,3.57-10.67,7.49-16.07,11.14-14.23,9.61-29.78,8.66-42.39-2.88q-9.42-8.62-18.06-18.06c-11.52-12.61-12.44-28.17-2.81-42.4,3.58-5.28,7.45-10.37,10.9-15.74a6.21,6.21,0,0,0,.41-4.86c-2.67-7.07-5.54-14.08-8.67-21A6.77,6.77,0,0,0,139.9,480c-7.13-1.59-14.43-2.42-21.52-4.16-14.87-3.64-24.43-15.4-25-30.68-.34-8.77-.33-17.58,0-26.35.59-16.38,11.57-28.63,28-31.62,6.15-1.12,12.29-2.27,18.47-3.17a5.06,5.06,0,0,0,4.49-3.71c2.74-7.05,5.83-14,8.53-21a5.77,5.77,0,0,0-.44-4.53c-4.18-6.47-9-12.58-12.91-19.18a31.13,31.13,0,0,1,3.37-37.41,268.48,268.48,0,0,1,19.62-19.87c12.59-11.51,28.18-12.29,42.4-2.59,5.27,3.6,10.39,7.43,15.74,10.9a5.8,5.8,0,0,0,4.53.41c7.06-2.71,14-5.81,21-8.53a5,5,0,0,0,3.66-4.52q1.38-9.27,3.2-18.46c2.84-14.45,11.3-23.67,25.71-27.25.76-.19,1.48-.51,2.23-.76h33.54c.74.25,1.47.57,2.23.76,14.42,3.58,22.85,12.83,25.7,27.26q1.83,9.18,3.2,18.46a5,5,0,0,0,3.68,4.51c7,2.73,14,5.83,21,8.53a5.76,5.76,0,0,0,4.53-.42c5.35-3.46,10.47-7.3,15.74-10.89,14.22-9.7,29.76-8.89,42.41,2.58,6.4,5.8,12.56,11.93,18.35,18.33,11.41,12.6,12.31,27.94,2.82,42.06-3.64,5.41-7.57,10.62-11.11,16.09a5.74,5.74,0,0,0-.44,4.52q4.13,10.78,8.85,21.33a6.36,6.36,0,0,0,3.84,3.16c5,1.16,10.18,1.91,15.31,2.7,8.89,1.37,16.93,4.38,23.16,11.27,4.52,5,6.66,11.08,8.39,17.39Z" transform="translate(-93.12 -227.45)"/>
  <path d="M217.18,423.31c-1.05,24.5,6.06,44.88,22.64,61.53,16,16.09,35.58,23.93,58.34,23,16.8-.71,32.23,2.79,45.67,13.3a76.49,76.49,0,0,1,7.69,6.93q31.91,32.76,63.63,65.66a16.58,16.58,0,0,1,4,7.49c.95,4.1-.84,7.63-4.53,9.8a10.14,10.14,0,0,1-11.31-.32,24.13,24.13,0,0,1-3.81-3.49c-20-20.62-40.28-41-60-62-11.16-11.87-24.12-17.5-40.46-16.68-24.49,1.23-46.62-6-65.53-21.57-27.84-22.91-39.92-52.68-36.46-88.58.73-7.56,5.35-12.68,12.27-15.43,7.27-2.9,14.43-2,20.1,3.4,9.93,9.44,19.24,19.52,29.12,29a23.2,23.2,0,0,0,9.48,5.31c5.11,1.43,9.64-.78,13.37-4.44,7-6.88,14.14-13.71,21.06-20.71,6.72-6.79,6.72-15.41,0-22.35-9.06-9.39-18.37-18.53-27.35-28-9.89-10.4-7.77-26,4.38-32.09a26.13,26.13,0,0,1,10-2.41c49.14-2.77,92.3,29.61,102.8,77.64,2,9,1.87,18.47,2,27.73.11,7.77-.27,15.63,3.5,22.6a69.65,69.65,0,0,0,10.47,14.88c20.84,21.87,42,43.46,63.05,65.11,2.95,3,4.83,6.23,3.9,10.65a10.13,10.13,0,0,1-16.12,6.27,28.43,28.43,0,0,1-3.49-3.28c-20.3-20.91-40.35-42.07-61-62.67-15.49-15.49-22.61-33.67-21-55.48,1-13.25-1.7-25.86-7.19-38-12.59-27.8-43.83-46.8-74.07-44.83a4.65,4.65,0,0,0-1.07.45c.77.94,1.41,1.85,2.18,2.63,7.63,7.8,15.33,15.53,22.93,23.36,15.79,16.27,15.63,37.62-.4,53.56q-9.77,9.71-19.69,19.26c-15.79,15.18-37.11,15-52.67-.53-7.72-7.71-15.29-15.57-22.94-23.35C219.83,425.79,218.87,424.92,217.18,423.31Z" transform="translate(-93.12 -227.45)"/>
</svg>
