<svg id="Capa_1" data-name="Capa 1" xmlns="http://www.w3.org/2000/svg" viewBox="0 0 168.45 168.47">
  <defs>
    <style>
      .cls-1 {
        fill: #111896;
      }
    </style>
  </defs>
  <path class="cls-1" d="M151.77,15.76a25.31,25.31,0,0,1,17.08,6.66c2.66,2.43,5.2,5,7.7,7.59,10,10.4,10.24,25.45.52,36.15-.61.66-1.24,1.3-1.88,1.94q-49.69,49.7-99.36,99.4a14,14,0,0,1-6.48,3.77c-15,4.08-29.91,8.26-44.85,12.42-2,.55-3.94.95-5.88-.17-2.4-1.39-3.39-3.9-2.54-7,3.52-12.86,7.42-25.64,10.51-38.61,1.85-7.76,5.63-13.71,11.28-19.29,31.63-31.23,63-62.75,94.36-94.21C137.63,19,143.93,15.88,151.77,15.76ZM127.41,46.44l-83.3,83.29,26.13,26.13,83.3-83.31Zm8-9.4L162.81,64.5c1.64-1.72,3.4-3.56,5.13-5.42A27.34,27.34,0,0,0,170,56.7c3.57-4.78,3.7-12.19-.16-16.75a74.32,74.32,0,0,0-9.67-9.68c-4.43-3.63-9.79-4.23-14.71-1.39C141.71,31,138.63,34.35,135.39,37ZM37.87,140.73c-2.7,9.76-5.38,19.47-8.18,29.57l29.54-8.2Z" transform="translate(-15.78 -15.76)"/>
</svg>
