<svg id="Capa_1" data-name="Capa 1" xmlns="http://www.w3.org/2000/svg" viewBox="0 0 987.32 508.78">
  <defs>
    <style>
      .cls-1 {
        fill: none;
        stroke: #000;
        stroke-miterlimit: 10;
        stroke-width: 15px;
      }
    </style>
  </defs>
  <g>
    <path d="M735.9,544v37.31h34.5a12.5,12.5,0,0,1,12.5,12.5h0a12.5,12.5,0,0,1-12.5,12.5H735.9v51a24,24,0,0,1-24,24h0a24,24,0,0,1-24-24V518.5a19.23,19.23,0,0,1,19.23-19.24h68.46a13.31,13.31,0,0,1,13.31,13.31v5.27a6.42,6.42,0,0,1-6.42,6.42H755.59A19.7,19.7,0,0,0,735.9,544Z" transform="translate(-539.1 -393.82)"/>
    <path d="M924.15,644.69c-.22-8-.38-16.06-.28-24.09.09-6.53-.28-13.27-3.24-19.35a30.66,30.66,0,0,0-9.17-10.6,28.34,28.34,0,0,0,11.44-22.77V537.44a38.18,38.18,0,0,0-38.18-38.18H854.94a35,35,0,0,0-35,35v123a24,24,0,0,0,48,0v-61h25.42c5.39,3.11,9.52,5.16,11,8,1,2,.92,7,1,11,.1,4.64,0,9.29,0,13.93V657.1c0,2.93-.51,6.26,0,9.16,0,0,2.28,12.89,10.27,12.45s9.14-11.45,9.14-11.45C925.24,659.82,924.35,652.14,924.15,644.69Zm-52.64-66.43a3.6,3.6,0,0,1-3.61-3.61V533.58a11.32,11.32,0,0,1,11.32-11.32H890.5a15.39,15.39,0,0,1,15.4,15.4v19.56a21.1,21.1,0,0,1-21,21Z" transform="translate(-539.1 -393.82)"/>
    <path d="M1020.9,544v30.31h34.5a12.5,12.5,0,0,1,12.5,12.5,12.29,12.29,0,0,1-.5,3.5,12.29,12.29,0,0,1,.5,3.5,12.5,12.5,0,0,1-12.5,12.5h-34.5v30.31a19.7,19.7,0,0,0,19.69,19.69h26.88a6.43,6.43,0,0,1,6.43,6.43V668a13.31,13.31,0,0,1-13.31,13.31H992.13A19.23,19.23,0,0,1,972.9,662V518.49a19.23,19.23,0,0,1,19.23-19.23h68.46a13.31,13.31,0,0,1,13.31,13.31v5.26a6.43,6.43,0,0,1-6.43,6.43h-26.88A19.7,19.7,0,0,0,1020.9,544Z" transform="translate(-539.1 -393.82)"/>
    <path d="M1311.65,509h0a6,6,0,0,0-4.22-1.75H1304a5.94,5.94,0,0,0-2.2.43h0a5.94,5.94,0,0,0-3.39,3.45L1282,555.23l-43.66,116.88a6.78,6.78,0,0,0,6.36,9.15h0a11.74,11.74,0,0,0,11-7.72l8.87-24.28h56.13l11.39,27.65a7,7,0,0,0,6.5,4.35h3.6A26.06,26.06,0,0,0,1366.6,646l-47.08-124.79A34.48,34.48,0,0,0,1311.65,509ZM1273,626.26l12.71-34.78a6,6,0,0,1,11.12-.23l14.42,35Z" transform="translate(-539.1 -393.82)"/>
    <path d="M1111.22,522.36a34.77,34.77,0,0,0-1.33,6.07,203.36,203.36,0,0,0-2.36,26.76c-.13,7.15-.37,16,3.3,22.44,7.14,12.53,24.29,19.18,36.23,26.64a301.72,301.72,0,0,0,37.28,20.24,47.77,47.77,0,0,1,13.05,9.19,15.84,15.84,0,0,1,3.9,7.93,20.69,20.69,0,0,1-11.87,20.74c-8.94,3.94-19.76.77-27.32-5.42a15.79,15.79,0,0,1-4.52-5.31c-2-4.28-.69-9.4-.53-13.93.12-3.34.42-6.67.66-10,0,0,1.06-14.92-20.24-16s-23.44,17-23.44,17-1.07,16,1.06,21.31,8.39,36.22,54.27,35.16,44.81-48,44.81-48V615.8a38.15,38.15,0,0,0-10-26.08,24.63,24.63,0,0,0-9-6.44c-11.91-4.58-43.81-20.53-43.88-20.56a41.8,41.8,0,0,1-6.09-4.3c-3.14-2.37-6.59-4-10-6-3.85-2.29-7.6-5.66-8.13-10.11-.32-2.71.62-5.41,1.54-8,1.29-3.6,2.75-7.44,5.9-9.61,2.37-1.64,5.34-2.07,8.21-2.31,5-.44,10.21-.41,14.94,1.34s9,5.51,10.12,10.42-.33,10.36.31,15.47a38.86,38.86,0,0,0,2.43,10.26,19.69,19.69,0,0,0,18,12.46c25.56,1.06,23.43-20.25,23.43-20.25V527.5a21.21,21.21,0,0,0-6.3-15.2c-5.36-5.21-10.68-8.65-18-10.67-13.9-3.86-30.15-5.59-44.36-2.74-10.73,2.15-21.08,7.44-27.9,16a25.47,25.47,0,0,0-4.22,7.29Z" transform="translate(-539.1 -393.82)"/>
  </g>
  <ellipse class="cls-1" cx="489" cy="197.55" rx="481.5" ry="190.05"/>
  <g>
    <path d="M1223.58,813.7v41.66a14.62,14.62,0,0,1-12.29,13.75c-7.56.76-15.11,1.21-22.66,1.31-2,0-3-1-3-3V807.3c0-2,1-3,3-3,7.54-.1,15.08-.55,22.62-1.31a11,11,0,0,1,8.59,2.72A10.14,10.14,0,0,1,1223.58,813.7Zm-12.21,43.18V815.15c-4.51.45-9,.8-13.52,1v41.74Q1204.61,857.57,1211.37,856.88Z" transform="translate(-539.1 -393.82)"/>
    <path d="M1258.33,860.94q-8.61,2-17.22,3.72a9.45,9.45,0,0,1-11.63-9.56V803.59a3.25,3.25,0,0,1,3-3.54c8.53-1.44,17-3.21,25.57-5.22q3-.72,3,2.31v6.19a3.52,3.52,0,0,1-3,3.72q-8.19,1.92-16.38,3.54v14.74c4.56-.89,9.12-1.87,13.68-2.91q3-.7,3,2.32v6.19a3.51,3.51,0,0,1-3,3.74q-6.84,1.58-13.68,2.92v14.74q8.31-1.64,16.63-3.6c2-.48,3,.28,3,2.3v6.15A3.54,3.54,0,0,1,1258.33,860.94Z" transform="translate(-539.1 -393.82)"/>
    <path d="M1294.55,851.13q-7.82,2.34-15.62,4.51a9.16,9.16,0,0,1-8.24-1.2,8.5,8.5,0,0,1-3.43-7.32V795.61a3.63,3.63,0,0,1,3-3.82q3.11-.81,6.19-1.65t3,2.2v50.92q7.51-2.09,15-4.34c2-.6,3,.11,3,2.13v6.15A3.77,3.77,0,0,1,1294.55,851.13Z" transform="translate(-539.1 -393.82)"/>
    <path d="M1312.66,845.55l-6.19,1.94q-3,.94-3-2.09V785.3a3.86,3.86,0,0,1,3-4l6.19-1.94q3-1,3,2.07v60.1A3.91,3.91,0,0,1,1312.66,845.55Z" transform="translate(-539.1 -393.82)"/>
    <path d="M1342.14,808q2.58-12.46,4.13-19.87t3.84-18.51a4.2,4.2,0,0,1,3-3.33l6.31-2a2.19,2.19,0,0,1,2.36.38,2.43,2.43,0,0,1,.59,2.34q-6.72,32.22-13.43,64.5a4.11,4.11,0,0,1-3,3.27l-7.71,2.51c-1.63.53-2.6.07-2.91-1.37q-6.7-27.92-13.43-55.84a3.34,3.34,0,0,1,.59-2.71,4.26,4.26,0,0,1,2.36-1.9l6.31-2.05c1.6-.52,2.6-.06,3,1.39q2.28,9.62,3.8,16T1342.14,808Z" transform="translate(-539.1 -393.82)"/>
    <path d="M1397.4,819q-8.61,2.37-17.22,5-4.8,1.44-8.22-.91a8.11,8.11,0,0,1-3.41-7.15V764.43a3.86,3.86,0,0,1,3-4c8.53-2.64,17.05-5.17,25.57-7.53,2-.56,3,.18,3,2.2v6.19a3.66,3.66,0,0,1-3,3.82q-8.19,2.28-16.38,4.74v14.74q6.84-2.05,13.68-4,3-.86,3,2.18V789a3.7,3.7,0,0,1-3,3.87c-4.56,1.28-9.12,2.62-13.68,4v14.75q8.31-2.5,16.63-4.81c2-.56,3,.18,3,2.21v6.14A3.69,3.69,0,0,1,1397.4,819Z" transform="translate(-539.1 -393.82)"/>
    <path d="M1441.29,808.89q-3.32.58-6.61,1.23a2.23,2.23,0,0,1-2.78-1.39q-4.85-11.52-9.69-22.94c-1.21.28-2.42.55-3.62.84v23.92a3.53,3.53,0,0,1-3,3.75c-2.06.5-4.12,1-6.19,1.54s-3-.23-3-2.25v-60.1a3.62,3.62,0,0,1,3-3.82c7.18-1.82,14.35-3.49,21.52-5a10,10,0,0,1,8.6,2,9.68,9.68,0,0,1,3.75,7.91V769.3a13.18,13.18,0,0,1-2.4,7.45,17.45,17.45,0,0,1-5.9,5.56q4.59,10.94,9.18,22a3,3,0,0,1-.29,2.87A3.67,3.67,0,0,1,1441.29,808.89ZM1431,771.65V756.91q-6.2,1.26-12.38,2.72v14.74Q1424.77,772.92,1431,771.65Z" transform="translate(-539.1 -393.82)"/>
    <path d="M1476.79,780.28v21.35a2.88,2.88,0,0,1-3,3.22c-2.11.14-4.21.31-6.32.5s-3-.72-3-2.74V781.17q-6.63-18.15-13.27-36a3,3,0,0,1,.38-2.83,3.51,3.51,0,0,1,2.49-1.61q3.08-.43,6.15-.79a2.45,2.45,0,0,1,2.86,1.75q3.81,10.88,7.62,21.86,3.75-11.58,7.5-23.06a2.9,2.9,0,0,1,2.86-2.2q3.27-.12,6.53-.17a2.84,2.84,0,0,1,2.45,1.29,2.91,2.91,0,0,1,.37,2.74Q1483.57,761,1476.79,780.28Z" transform="translate(-539.1 -393.82)"/>
  </g>
  <path d="M1154.59,895.09a296.28,296.28,0,0,0,46.93-4.08,441.19,441.19,0,0,0,46-10.28c30.32-8.37,59.93-19.13,89.57-29.87s59.37-21.55,90-30a446.74,446.74,0,0,1,46.58-10.4,300.58,300.58,0,0,1,47.82-4.14,4.94,4.94,0,1,1,0,9.88h-.11c-31-.63-62,4.52-92.34,12.14s-60.23,17.74-90.11,27.8-59.84,20.2-90.53,27.93a448,448,0,0,1-46.51,9.29,297.1,297.1,0,0,1-47.3,3,.64.64,0,0,1-.64-.66A.65.65,0,0,1,1154.59,895.09Z" transform="translate(-539.1 -393.82)"/>
  <path d="M1154.43,901.22a277.93,277.93,0,0,0,45-2.51c14.94-1.93,29.75-4.69,44.48-7.84,29.46-6.35,58.57-14.25,87.7-22.11S1390,853,1419.56,846.53c14.81-3.19,29.74-6,44.84-8a279.54,279.54,0,0,1,45.8-2.58,4,4,0,1,1-.28,8h-.12a273.62,273.62,0,0,0-44.54,1.67c-14.86,1.65-29.68,4.14-44.43,7-29.5,5.8-58.76,13.16-88,20.46s-58.61,14.66-88.29,20.45c-14.84,2.89-29.77,5.36-44.81,7a280,280,0,0,1-45.31,1.64.53.53,0,0,1,0-1.06Z" transform="translate(-539.1 -393.82)"/>
</svg>
