<svg id="Capa_1" data-name="Capa 1" xmlns="http://www.w3.org/2000/svg" viewBox="0 0 978 395.1">
  <defs>
    <style>
      .cls-1 {
        fill: none;
        stroke: #000;
        stroke-miterlimit: 10;
        stroke-width: 15px;
      }
    </style>
  </defs>
  <g>
    <path d="M735.9,544v37.31h34.5a12.5,12.5,0,0,1,12.5,12.5h0a12.5,12.5,0,0,1-12.5,12.5H735.9v51a24,24,0,0,1-24,24h0a24,24,0,0,1-24-24V518.5a19.23,19.23,0,0,1,19.23-19.24h68.46a13.31,13.31,0,0,1,13.31,13.31v5.27a6.42,6.42,0,0,1-6.42,6.42H755.59A19.7,19.7,0,0,0,735.9,544Z" transform="translate(-539.1 -393.82)"/>
    <path d="M924.15,644.69c-.22-8-.38-16.06-.28-24.09.09-6.53-.28-13.27-3.24-19.35a30.66,30.66,0,0,0-9.17-10.6,28.34,28.34,0,0,0,11.44-22.77V537.44a38.18,38.18,0,0,0-38.18-38.18H854.94a35,35,0,0,0-35,35v123a24,24,0,0,0,48,0v-61h25.42c5.39,3.11,9.52,5.16,11,8,1,2,.92,7,1,11,.1,4.64,0,9.29,0,13.93V657.1c0,2.93-.51,6.26,0,9.16,0,0,2.28,12.89,10.27,12.45s9.14-11.45,9.14-11.45C925.24,659.82,924.35,652.14,924.15,644.69Zm-52.64-66.43a3.6,3.6,0,0,1-3.61-3.61V533.58a11.32,11.32,0,0,1,11.32-11.32H890.5a15.39,15.39,0,0,1,15.4,15.4v19.56a21.1,21.1,0,0,1-21,21Z" transform="translate(-539.1 -393.82)"/>
    <path d="M1020.9,544v30.31h34.5a12.5,12.5,0,0,1,12.5,12.5,12.29,12.29,0,0,1-.5,3.5,12.29,12.29,0,0,1,.5,3.5,12.5,12.5,0,0,1-12.5,12.5h-34.5v30.31a19.7,19.7,0,0,0,19.69,19.69h26.88a6.43,6.43,0,0,1,6.43,6.43V668a13.31,13.31,0,0,1-13.31,13.31H992.13A19.23,19.23,0,0,1,972.9,662V518.49a19.23,19.23,0,0,1,19.23-19.23h68.46a13.31,13.31,0,0,1,13.31,13.31v5.26a6.43,6.43,0,0,1-6.43,6.43h-26.88A19.7,19.7,0,0,0,1020.9,544Z" transform="translate(-539.1 -393.82)"/>
    <path d="M1311.65,509h0a6,6,0,0,0-4.22-1.75H1304a5.94,5.94,0,0,0-2.2.43h0a5.94,5.94,0,0,0-3.39,3.45L1282,555.23l-43.66,116.88a6.78,6.78,0,0,0,6.36,9.15h0a11.74,11.74,0,0,0,11-7.72l8.87-24.28h56.13l11.39,27.65a7,7,0,0,0,6.5,4.35h3.6A26.06,26.06,0,0,0,1366.6,646l-47.08-124.79A34.48,34.48,0,0,0,1311.65,509ZM1273,626.26l12.71-34.78a6,6,0,0,1,11.12-.23l14.42,35Z" transform="translate(-539.1 -393.82)"/>
    <path d="M1111.22,522.36a34.77,34.77,0,0,0-1.33,6.07,203.36,203.36,0,0,0-2.36,26.76c-.13,7.15-.37,16,3.3,22.44,7.14,12.53,24.29,19.18,36.23,26.64a301.72,301.72,0,0,0,37.28,20.24,47.77,47.77,0,0,1,13.05,9.19,15.84,15.84,0,0,1,3.9,7.93,20.69,20.69,0,0,1-11.87,20.74c-8.94,3.94-19.76.77-27.32-5.42a15.79,15.79,0,0,1-4.52-5.31c-2-4.28-.69-9.4-.53-13.93.12-3.34.42-6.67.66-10,0,0,1.06-14.92-20.24-16s-23.44,17-23.44,17-1.07,16,1.06,21.31,8.39,36.22,54.27,35.16,44.81-48,44.81-48V615.8a38.15,38.15,0,0,0-10-26.08,24.63,24.63,0,0,0-9-6.44c-11.91-4.58-43.81-20.53-43.88-20.56a41.8,41.8,0,0,1-6.09-4.3c-3.14-2.37-6.59-4-10-6-3.85-2.29-7.6-5.66-8.13-10.11-.32-2.71.62-5.41,1.54-8,1.29-3.6,2.75-7.44,5.9-9.61,2.37-1.64,5.34-2.07,8.21-2.31,5-.44,10.21-.41,14.94,1.34s9,5.51,10.12,10.42-.33,10.36.31,15.47a38.86,38.86,0,0,0,2.43,10.26,19.69,19.69,0,0,0,18,12.46c25.56,1.06,23.43-20.25,23.43-20.25V527.5a21.21,21.21,0,0,0-6.3-15.2c-5.36-5.21-10.68-8.65-18-10.67-13.9-3.86-30.15-5.59-44.36-2.74-10.73,2.15-21.08,7.44-27.9,16a25.47,25.47,0,0,0-4.22,7.29Z" transform="translate(-539.1 -393.82)"/>
  </g>
  <ellipse class="cls-1" cx="489" cy="197.55" rx="481.5" ry="190.05"/>
</svg>
