<svg id="Capa_1" data-name="Capa 1" xmlns="http://www.w3.org/2000/svg" viewBox="0 0 26.3 36.13">
  <defs>
    <style>
      .cls-1 {
        isolation: isolate;
        font-size: 16.62px;
        font-family: BebasNeue-Regular, Bebas Neue;
      }

      .cls-2 {
        fill: none;
        stroke: #000;
        stroke-miterlimit: 10;
        stroke-width: 0.67px;
      }
    </style>
  </defs>
  <path d="M8.13,12.63a.86.86,0,0,0-.64,1h0L8.77,34.08a2.61,2.61,0,0,0,2.16,2.76H30.42a2.62,2.62,0,0,0,2.17-2.76L33.78,14A1.16,1.16,0,0,0,33,12.64H8.13ZM31.19,33.87a1,1,0,0,1-.81,1H10.9a.94.94,0,0,1-.79-1L8.84,14.12H32.4Z" transform="translate(-7.49 -0.72)"/>
  <path d="M9.57,6.84H31.7a2.37,2.37,0,0,1,2.07,2.58v2H7.49v-2A2.37,2.37,0,0,1,9.57,6.84Z" transform="translate(-7.49 -0.72)"/>
  <text class="cls-1" transform="translate(2.75 29.24)">1/4</text>
  <path class="cls-2" d="M12.31,16.92H29c1.93,0,3.49,1.94,3.49,4.34v6.25c0,2.4-1.56,4.34-3.49,4.34H12.31c-1.92,0-3.49-1.94-3.49-4.34V21.26C8.82,18.86,10.39,16.92,12.31,16.92Z" transform="translate(-7.49 -0.72)"/>
  <path d="M18.86,8.25c.27-1.27.39-2.57,1.54-3.36a10.24,10.24,0,0,1,1.65-.84c2-.89,4-1.76,6-2.64.51-.23.83-.17,1,.2s0,.67-.55.9l-6.88,3a2.19,2.19,0,0,0-1.35,1.66c-.08.34-.16.69-.22,1v0h.54l.19-1a1.66,1.66,0,0,1,1-1.26c.92-.39,1.82-.8,2.73-1.2l4.37-1.92a1.13,1.13,0,0,0,.72-1.21,1.21,1.21,0,0,0-.84-1h-.52l-.1.06C25.72,1.85,23.27,2.92,20.84,4a3.67,3.67,0,0,0-2.15,2.62c-.13.52-.25,1-.35,1.56,0,0,0,.05,0,.07Z" transform="translate(-7.49 -0.72)"/>
</svg>
