<svg id="Capa_1" data-name="Capa 1" xmlns="http://www.w3.org/2000/svg" viewBox="0 0 26.33 36.26">
  <defs>
    <style>
      .cls-1 {
        isolation: isolate;
        font-size: 16.62px;
        font-family: BebasNeue-Regular, Bebas Neue;
      }

      .cls-2 {
        letter-spacing: -0.02em;
      }

      .cls-3 {
        letter-spacing: 0em;
      }

      .cls-4 {
        fill: none;
        stroke: #000;
        stroke-miterlimit: 10;
        stroke-width: 0.67px;
      }
    </style>
  </defs>
  <path d="M.64,11.91a.86.86,0,0,0-.64,1H0L1.28,33.36a2.61,2.61,0,0,0,2.16,2.76H22.93a2.63,2.63,0,0,0,2.17-2.76l1.19-20.08a1.16,1.16,0,0,0-.78-1.36H.64ZM23.7,33.15a1,1,0,0,1-.81,1H3.41a.94.94,0,0,1-.79-1L1.35,13.4H24.91Z" transform="translate(0.02 0.14)"/>
  <path d="M2.08,6.12H24.21A2.37,2.37,0,0,1,26.28,8.7v2H0v-2A2.37,2.37,0,0,1,2.08,6.12Z" transform="translate(0.02 0.14)"/>
  <text class="cls-1" transform="translate(1.37 29.38)">1 <tspan class="cls-2" x="9.31" y="0">k</tspan><tspan class="cls-3" x="15.92" y="0">g</tspan></text>
  <path class="cls-4" d="M4.82,16.2H21.51c1.93,0,3.49,1.94,3.49,4.34v6.25c0,2.4-1.56,4.34-3.49,4.34H4.82c-1.92,0-3.49-1.94-3.49-4.34V20.54C1.33,18.14,2.9,16.2,4.82,16.2Z" transform="translate(0.02 0.14)"/>
  <path d="M11.37,7.53c.27-1.27.39-2.57,1.54-3.36a10.24,10.24,0,0,1,1.65-.84c2-.89,4-1.76,6-2.64.51-.23.83-.17,1,.2s0,.67-.55.9l-6.88,3a2.18,2.18,0,0,0-1.35,1.66c-.08.34-.16.69-.22,1h.54l.19-1a1.66,1.66,0,0,1,1-1.26c.92-.39,1.82-.8,2.73-1.2l4.37-1.92A1.14,1.14,0,0,0,22.11.86a1.21,1.21,0,0,0-.84-1h-.52l-.1.06c-2.42,1.21-4.87,2.28-7.3,3.36A3.68,3.68,0,0,0,11.2,5.9c-.13.52-.25,1-.35,1.56v.07Z" transform="translate(0.02 0.14)"/>
</svg>
