<svg id="Capa_1" data-name="Capa 1" xmlns="http://www.w3.org/2000/svg" viewBox="0 0 383.04 383.14">
  <defs>
    <style>
      .cls-1 {
        fill: #fefefe;
      }

      .cls-2 {
        fill: #010101;
      }

      .cls-3 {
        fill: #92e6f7;
      }
    </style>
  </defs>
  <path class="cls-1" d="M235.14,543.66a7.47,7.47,0,1,1-7.66,7.45A7.54,7.54,0,0,1,235.14,543.66Z" transform="translate(-139.17 -253.29)"/>
  <path class="cls-1" d="M236.19,450.85c-5.74,0-9.08-2.86-9-7.62.08-4.59,3.36-7.33,8.91-7.33h83c5.56,0,8.77,2.76,8.79,7.43s-3.19,7.51-8.69,7.52c-14,0-27.91,0-41.86,0Q256.75,450.86,236.19,450.85Z" transform="translate(-139.17 -253.29)"/>
  <path class="cls-1" d="M257.41,551.27a7.34,7.34,0,0,1,7.18-7.56c5.72-.18,11.45-.06,17.18-.06h38.87q26.91,0,53.81,0c2.45,0,4.72.31,6.58,2.06a7.21,7.21,0,0,1,1.94,7.88,7.13,7.13,0,0,1-6,5,17.41,17.41,0,0,1-3,.09H266.74c-.75,0-1.5,0-2.25,0A7.5,7.5,0,0,1,257.41,551.27Z" transform="translate(-139.17 -253.29)"/>
  <path class="cls-1" d="M304.9,504.73H236.07c-4.79,0-7.76-1.94-8.64-5.53a7.42,7.42,0,0,1,6.58-9.38,20.88,20.88,0,0,1,2.24-.05h138c5.37,0,8.46,2.25,9,6.45.59,4.76-2.59,8.41-7.66,8.48-8.11.11-16.21,0-24.32,0Z" transform="translate(-139.17 -253.29)"/>
  <path class="cls-1" d="M434.21,480.81a7.47,7.47,0,1,1-7.7,7.41A7.54,7.54,0,0,1,434.21,480.81Z" transform="translate(-139.17 -253.29)"/>
  <path class="cls-1" d="M429.91,464.94A106.27,106.27,0,0,1,318,400.33c-1.07-2.56-2.27-3.49-5.12-3.43-9.47.23-18.95.11-28.43.08-5.35,0-8.86-3-8.88-7.47s3.53-7.46,8.86-7.48c8.36,0,16.71-.07,25.06,0,2.18,0,2.67-.42,2.23-2.7a102.51,102.51,0,0,1,4.85-56.93c1.19-3.13.33-3.34-2.48-3.33q-24.5.18-49,0c-2.57,0-3.31.54-3.29,3.22.14,16.46.07,32.92.07,49.38s-9,25.29-25.47,25.29c-16.34,0-32.67.08-49-.08-2.86,0-3.41.75-3.4,3.48q.12,102.32.07,204.63c0,10.36,6.11,16.44,16.5,16.44H410.06c10.34,0,16.42-6.13,16.43-16.53q0-42.09,0-84.17a24.36,24.36,0,0,1,.11-3.73,7.46,7.46,0,0,1,14.77.23,25.1,25.1,0,0,1,.08,3.36q0,41.91,0,83.8c0,16.81-8.63,27.67-25,31.5-.18.05-.31.34-.46.51.18-1.91,1.88-1.74,3.07-2.13,13.62-4.44,21.23-14.8,21.25-29.18q0-41.72,0-83.42a15.88,15.88,0,0,0-.48-5.19,5.83,5.83,0,0,0-5.85-4.38,5.92,5.92,0,0,0-5.91,4.32,16,16,0,0,0-.49,5.56q0,40.59,0,81.18a28,28,0,0,1-.56,7.07A15.43,15.43,0,0,1,415.24,622a29.05,29.05,0,0,1-7.44.55h-205c-1.62,0-3.24,0-4.86-.11a15.85,15.85,0,0,1-14.86-14.72,50.73,50.73,0,0,1-.13-5.23V404.23c0-8.3.06-8.35,8.3-8.35q23,0,46,0c14.74,0,23.47-8.77,23.5-23.56,0-15.71,0-31.42,0-47.13,0-6.64.47-7.11,6.91-7.12q21.88,0,43.77,0a25.81,25.81,0,0,1,3.73.16c2.18.33,3,1.6,2.54,3.71a51.84,51.84,0,0,1-1.64,5.36,100.85,100.85,0,0,0-3.87,48.36c1.16,7,.75,7.46-6.42,7.48H286.34a19.39,19.39,0,0,0-4.1.23,6.8,6.8,0,0,0-5.38,5.95c-.1,2.83,2.28,5.65,5.39,6.32a18.72,18.72,0,0,0,4.1.24c8.48,0,17,.11,25.43,0,3.74-.07,6,1.31,7.48,4.8a104.92,104.92,0,0,0,30,40,103.37,103.37,0,0,0,54.27,23.23c56.41,6.83,108.55-32.66,116.64-90.22,6.3-44.85-17.69-89.74-59.28-109-36.05-16.68-71-13.23-104.24,8.26a16.64,16.64,0,0,1-9.56,2.45q-69,0-138,0H163.78c-10.52,0-18.27,4.2-22.28,14.32-.43,1.09-.67,2.51-2.33,2.53.22-.27.56-.5.66-.81,3.88-11.72,11.32-17.14,23.64-17.14,59,0,118-.11,176.94.11a38.11,38.11,0,0,0,21.17-5.77c64.12-39,147.65.2,159.33,74.42C530.18,402,488.88,457.28,429.91,464.94Z" transform="translate(-139.17 -253.29)"/>
  <path d="M349.43,367a30.72,30.72,0,0,1-3.72-.07,7.55,7.55,0,0,1-6.76-7.61,7.4,7.4,0,0,1,7.09-7.24c1.12-.08,2.24,0,3.36,0,7.06,0,10.6,2.54,10.48,7.59Q359.72,367,349.43,367Z" transform="translate(-139.17 -253.29)"/>
  <path d="M423.33,422.31a40.49,40.49,0,0,1,.09,6.7c-.21,4.5-3.4,7.64-7.54,7.62s-7.2-3.17-7.38-7.72c0-1,0-2,0-3h0c0-1-.05-2,0-3a7.43,7.43,0,0,1,14.81-.63Z" transform="translate(-139.17 -253.29)"/>
  <path d="M408.68,296.71a42.91,42.91,0,0,1-.07-6.71c.24-4.47,3.48-7.58,7.64-7.5s7.12,3.2,7.28,7.82c0,1,0,2,0,3h0c0,1,.07,2,0,3a7.43,7.43,0,0,1-14.82.42Z" transform="translate(-139.17 -253.29)"/>
  <path d="M379,333.13c-2.5-2.51-3.52-5.41-2-8.82a7.16,7.16,0,0,1,6.75-4.45c2.75-.08,4.66,1.45,6.47,3.26,7.74,7.76,15.57,15.44,23.21,23.29,2,2,3,2.28,5.18.1,13.9-14.11,28-28.07,42-42.07a23.24,23.24,0,0,1,3.06-2.73A7.38,7.38,0,0,1,473.87,312a20.31,20.31,0,0,1-2.45,2.8Q447.26,339,423.06,363.13c-5.29,5.28-8.75,5.31-13.94.13Q394,348.22,379,333.13Z" transform="translate(-139.17 -253.29)"/>
  <path d="M478.72,352.25a40.3,40.3,0,0,1,7.45,0,7.41,7.41,0,0,1,6.9,7.44c0,4.08-3,7.14-7.3,7.42-1.12.07-2.24,0-3.36,0v0c-1.12,0-2.24.08-3.35,0a7.43,7.43,0,0,1-.34-14.79Z" transform="translate(-139.17 -253.29)"/>
  <path d="M309.5,382.07c-8.35-.11-16.7-.07-25.06,0-5.33,0-8.87,3-8.86,7.48s3.53,7.46,8.88,7.47c9.48,0,19,.15,28.43-.08,2.85-.06,4.05.87,5.12,3.43a106.27,106.27,0,0,0,111.9,64.61c59-7.66,100.27-63,91-121.9-11.68-74.22-95.21-113.4-159.33-74.42a38.11,38.11,0,0,1-21.17,5.77c-59-.22-118-.12-176.94-.11-12.32,0-19.76,5.42-23.64,17.14-.1.31-.44.54-.66.81V588.54c.86,2.56.91,5.31,2.45,7.71,5.14,8,12.62,11.37,21.83,11.18,3.14-.07,4.58.77,5.22,4.11,2.67,14,11.26,22.3,25.12,24.89H416c.15-.17.28-.46.46-.51,16.34-3.83,25-14.69,25-31.5q0-41.89,0-83.8a25.1,25.1,0,0,0-.08-3.36A7.46,7.46,0,0,0,426.6,517a24.36,24.36,0,0,0-.11,3.73q0,42.09,0,84.17c0,10.4-6.09,16.53-16.43,16.53H200.57c-10.39,0-16.5-6.08-16.5-16.44q0-102.32-.07-204.63c0-2.73.54-3.51,3.4-3.48,16.34.16,32.67.08,49,.08,16.51,0,25.46-8.9,25.47-25.29s.07-32.92-.07-49.38c0-2.68.72-3.23,3.29-3.22q24.5.19,49,0c2.81,0,3.67.2,2.48,3.33a102.51,102.51,0,0,0-4.85,56.93C312.17,381.65,311.68,382.09,309.5,382.07Zm-114-.08,51.38-51.47V349.1c0,8.23.05,16.46,0,24.69,0,4.72-2.69,8.09-7,8.14C225.13,382.09,210.34,382,195.53,382Zm-22.72.62a12.12,12.12,0,0,0-3.77,9.3q.12,97.6.14,195.23c0,3.47-.6,4.65-4.35,4.5-8.52-.33-10.7-2.22-10.7-10.6V299.78c0-8.42,2.15-10.54,10.65-10.54H336.34c-3.9,4.78-7.3,8.92-10,13.54-1.11,1.9-2.73,1.4-4.25,1.41-21.69,0-43.39.08-65.08-.05a12.45,12.45,0,0,0-9.62,3.89Q210.2,345.41,172.81,382.61ZM416.18,268.29a91.29,91.29,0,1,1-91.44,91.11A91.43,91.43,0,0,1,416.18,268.29Z" transform="translate(-139.17 -253.29)"/>
  <path class="cls-1" d="M193.79,636.43c-13.86-2.59-22.45-10.93-25.12-24.89-.64-3.34-2.08-4.18-5.22-4.11-9.21.19-16.69-3.17-21.83-11.18-1.54-2.4-1.59-5.15-2.45-7.71,1.1,1.11,1,2.69,1.65,4,4,8.67,10.76,13.4,20.36,13.93a17.14,17.14,0,0,0,3.36,0c3.14-.44,4.43.28,5,4,1.87,12.92,9.55,21.17,22,25C192.29,635.74,193.33,635.4,193.79,636.43Z" transform="translate(-139.17 -253.29)"/>
  <path d="M375.61,504.7c-8.11.11-16.21,0-24.32,0H236.07c-4.79,0-7.76-1.94-8.64-5.53a7.42,7.42,0,0,1,6.58-9.38,20.88,20.88,0,0,1,2.24-.05h138c5.37,0,8.46,2.25,9,6.45C383.86,501,380.68,504.63,375.61,504.7Z" transform="translate(-139.17 -253.29)"/>
  <path d="M383,553.56a7.13,7.13,0,0,1-6,5,17.41,17.41,0,0,1-3,.09H266.74c-.75,0-1.5,0-2.25,0a7.5,7.5,0,0,1-7.08-7.3,7.34,7.34,0,0,1,7.18-7.56c5.72-.18,11.45-.06,17.18-.06h38.87q26.91,0,53.81,0c2.45,0,4.72.31,6.58,2.06A7.21,7.21,0,0,1,383,553.56Z" transform="translate(-139.17 -253.29)"/>
  <path d="M327.86,443.33c0,4.68-3.19,7.51-8.69,7.52-14,0-27.91,0-41.86,0q-20.56,0-41.12,0c-5.74,0-9.08-2.86-9-7.62.08-4.59,3.36-7.33,8.91-7.33h83C324.63,435.9,327.84,438.66,327.86,443.33Z" transform="translate(-139.17 -253.29)"/>
  <path class="cls-2" d="M441.43,488.32a7.46,7.46,0,1,1-7.22-7.51A7.55,7.55,0,0,1,441.43,488.32Z" transform="translate(-139.17 -253.29)"/>
  <path class="cls-2" d="M242.4,551.14a7.46,7.46,0,1,1-7.26-7.48A7.55,7.55,0,0,1,242.4,551.14Z" transform="translate(-139.17 -253.29)"/>
  <path class="cls-3" d="M359.88,359.65q-.17,7.34-10.45,7.34a30.72,30.72,0,0,1-3.72-.07,7.55,7.55,0,0,1-6.76-7.61,7.4,7.4,0,0,1,7.09-7.24c1.12-.08,2.24,0,3.36,0C356.46,352,360,354.6,359.88,359.65Z" transform="translate(-139.17 -253.29)"/>
  <path class="cls-3" d="M423.33,422.31a40.49,40.49,0,0,1,.09,6.7c-.21,4.5-3.4,7.64-7.54,7.62s-7.2-3.17-7.38-7.72c0-1,0-2,0-3h0c0-1-.05-2,0-3a7.43,7.43,0,0,1,14.81-.63Z" transform="translate(-139.17 -253.29)"/>
  <path class="cls-3" d="M408.68,296.71a42.91,42.91,0,0,1-.07-6.71c.24-4.47,3.48-7.58,7.64-7.5s7.12,3.2,7.28,7.82c0,1,0,2,0,3h0c0,1,.07,2,0,3a7.43,7.43,0,0,1-14.82.42Z" transform="translate(-139.17 -253.29)"/>
  <path class="cls-3" d="M473.87,312a20.31,20.31,0,0,1-2.45,2.8Q447.26,339,423.06,363.13c-5.29,5.28-8.75,5.31-13.94.13Q394,348.22,379,333.13c-2.5-2.51-3.52-5.41-2-8.82a7.16,7.16,0,0,1,6.75-4.45c2.75-.08,4.66,1.45,6.47,3.26,7.74,7.76,15.57,15.44,23.21,23.29,2,2,3,2.28,5.18.1,13.9-14.11,28-28.07,42-42.07a23.24,23.24,0,0,1,3.06-2.73A7.38,7.38,0,0,1,473.87,312Z" transform="translate(-139.17 -253.29)"/>
  <path class="cls-3" d="M493.07,359.65c0,4.08-3,7.14-7.3,7.42-1.12.07-2.24,0-3.36,0v0c-1.12,0-2.24.08-3.35,0a7.43,7.43,0,0,1-.34-14.79,40.3,40.3,0,0,1,7.45,0A7.41,7.41,0,0,1,493.07,359.65Z" transform="translate(-139.17 -253.29)"/>
  <path d="M473.87,312a20.31,20.31,0,0,1-2.45,2.8Q447.26,339,423.06,363.13c-5.29,5.28-8.75,5.31-13.94.13Q394,348.22,379,333.13c-2.5-2.51-3.52-5.41-2-8.82a7.16,7.16,0,0,1,6.75-4.45c2.75-.08,4.66,1.45,6.47,3.26,7.74,7.76,15.57,15.44,23.21,23.29,2,2,3,2.28,5.18.1,13.9-14.11,28-28.07,42-42.07a23.24,23.24,0,0,1,3.06-2.73A7.38,7.38,0,0,1,473.87,312Z" transform="translate(-139.17 -253.29)"/>
  <path d="M493.07,359.65c0,4.08-3,7.14-7.3,7.42-1.12.07-2.24,0-3.36,0v0c-1.12,0-2.24.08-3.35,0a7.43,7.43,0,0,1-.34-14.79,40.3,40.3,0,0,1,7.45,0A7.41,7.41,0,0,1,493.07,359.65Z" transform="translate(-139.17 -253.29)"/>
  <path d="M423.54,293.31h0c0,1,.07,2,0,3a7.43,7.43,0,0,1-14.82.42,42.91,42.91,0,0,1-.07-6.71c.24-4.47,3.48-7.58,7.64-7.5s7.12,3.2,7.28,7.82C423.57,291.32,423.54,292.31,423.54,293.31Z" transform="translate(-139.17 -253.29)"/>
  <path d="M359.88,359.65q-.17,7.34-10.45,7.34a30.72,30.72,0,0,1-3.72-.07,7.55,7.55,0,0,1-6.76-7.61,7.4,7.4,0,0,1,7.09-7.24c1.12-.08,2.24,0,3.36,0C356.46,352,360,354.6,359.88,359.65Z" transform="translate(-139.17 -253.29)"/>
  <path d="M423.42,429c-.21,4.5-3.4,7.64-7.54,7.62s-7.2-3.17-7.38-7.72c0-1,0-2,0-3h0c0-1-.05-2,0-3a7.43,7.43,0,0,1,14.81-.63A40.49,40.49,0,0,1,423.42,429Z" transform="translate(-139.17 -253.29)"/>
</svg>
