<svg id="Capa_1" data-name="Capa 1" xmlns="http://www.w3.org/2000/svg" viewBox="0 0 163.13 119.7">
  <defs>
    <style>
      .cls-1 {
        font-size: 48.05px;
        font-family: Casino3D-Regular, "Casino 3D";
      }
    </style>
  </defs>
  <path d="M9.82,33.55c1-2.86,2.54-5.27,5.66-6.14a13,13,0,0,1,3.45-.47q72.46,0,144.93,0c5.76,0,9.07,3.35,9.07,9.14q0,39.73,0,79.48a5,5,0,0,1-1.56,3.83q-12.88,12.8-25.68,25.68a5,5,0,0,1-3.83,1.56q-61.47,0-122.95,0c-4.72,0-7.65-2.26-9.11-6.64ZM167.5,113.93V36.28c0-3.07-.87-3.92-4-3.92H19.35c-3.27,0-4.11.81-4.11,4V137.18c0,3.12.86,4,4,4H138.5c.56,0,1.12,0,1.82-.09,0-.79,0-1.41,0-2,0-5.89-.06-11.79.11-17.68a7.59,7.59,0,0,1,6.84-7.22c2.63-.25,5.3-.18,7.95-.2C159.26,113.91,163.28,113.93,167.5,113.93Zm-4.24,5.54c-5.09,0-10.1-.06-15.11,0-1.54,0-2.34,1.17-2.35,2.69,0,4.76,0,9.53,0,14.3,0,.12.14.24.16.28Z" transform="translate(-9.82 -26.92)"/>
  <text class="cls-1" transform="translate(15.1 71.47)">FRESA</text>
</svg>
