<svg id="Capa_1" data-name="Capa 1" xmlns="http://www.w3.org/2000/svg" viewBox="0 0 41.26 37.9">
  <defs>
    <style>
      .cls-1, .cls-2, .cls-3 {
        isolation: isolate;
      }

      .cls-2, .cls-3 {
        font-size: 21px;
        font-family: BebasNeue-Regular, Bebas Neue;
      }

      .cls-3 {
        letter-spacing: -0.02em;
      }
    </style>
  </defs>
  <path d="M2.73,17a4.45,4.45,0,0,0-.17,1.26v7.9a5,5,0,0,0,1.16,3.2Zm35.83-.07-1,12.42a5,5,0,0,0,1.15-3.19v-7.9A4.91,4.91,0,0,0,38.56,16.88Zm.52-3.71-.24.09L38.71,15l-.07.83h0l-.08,1.09-1,12.42-.06.76-.05.67-.27,3.41a1.36,1.36,0,0,1-1.28,1.31H5.35a1.3,1.3,0,0,1-1.24-1.26l-.28-3.45-.05-.67-.06-.76L2.73,17l-.09-1.13L2.57,15l-.46-5.8v0H25.19a.49.49,0,0,1,0-.11l.4-.88c-.13-.29-.25-.57-.38-.85H1a1.11,1.11,0,0,0-1,1.2s0,.05,0,.07L2,34.41a3.58,3.58,0,0,0,3.4,3.49H36a3.58,3.58,0,0,0,3.4-3.49L41.1,11.26A3,3,0,0,1,39.08,13.17Z" transform="translate(0 0)"/>
  <path d="M36.05,9.9a1.2,1.2,0,0,1-1.19,1.19A1.18,1.18,0,0,1,33.68,9.9,1.14,1.14,0,0,1,34,9.14a1.16,1.16,0,0,1,1.8,0A1.13,1.13,0,0,1,36.05,9.9Z" transform="translate(0 0)"/>
  <path d="M26.87,3.22a3,3,0,0,0-1.7,1.63,2.82,2.82,0,0,0-.21.89H0V3.26A3.26,3.26,0,0,1,3.26,0H30.55l-.12,0a3,3,0,0,0-2.15,1.66c-.1.22-.18.43-.26.65l-.2.53Z" transform="translate(0 0)"/>
  <path d="M31.52,0l-.14,0h3.47l-.12,0a6,6,0,0,0-1.38.53L33.16.7,32.5.39,32.2.26A4.19,4.19,0,0,0,31.52,0Z" transform="translate(0 0)"/>
  <path d="M41.26,3.26V5.74h0V5.58l0-.11a3.06,3.06,0,0,0-1.33-2,4,4,0,0,0-.76-.36l-.75-.28-.11-.29c-.06-.14-.11-.28-.16-.42A3,3,0,0,0,35.78,0l-.11,0H38A3.26,3.26,0,0,1,41.26,3.26Z" transform="translate(0 0)"/>
  <g class="cls-1">
    <text class="cls-2" transform="translate(5.82 29.2)">1 </text>
    <text class="cls-3" transform="translate(17.58 29.2)">k</text>
    <text class="cls-2" transform="translate(25.94 29.2)">g</text>
  </g>
  <path d="M39.11,15.68,39,15.31h0c-.06-.12-.14-.24-.21-.36a5.41,5.41,0,0,0-.46-.61l-.14-.16-.07.18a1.55,1.55,0,0,1-.14.29,3.07,3.07,0,0,1-.26.43,4.38,4.38,0,0,1,.43.63l.15.29a4.45,4.45,0,0,1,.34.88,4.91,4.91,0,0,1,.18,1.33v7.9a5,5,0,0,1-1.15,3.19,3.88,3.88,0,0,1-.39.42,5,5,0,0,1-3.47,1.4H7.57a5,5,0,0,1-3.46-1.39,5.11,5.11,0,0,1-.39-.42,5,5,0,0,1-1.16-3.2v-7.9A4.45,4.45,0,0,1,2.73,17,4.48,4.48,0,0,1,3.06,16,5,5,0,0,1,7.57,13.2H27.21l-.31-.12a3,3,0,0,1-.67-.35,2.68,2.68,0,0,1-.54-.47H7.57a6,6,0,0,0-5,2.73,5.45,5.45,0,0,0-.35.62,5.87,5.87,0,0,0-.6,2.6v7.9a5.89,5.89,0,0,0,1.84,4.3l.37.33a5.94,5.94,0,0,0,3.74,1.32H33.73a5.88,5.88,0,0,0,3.75-1.33c.13-.11.25-.21.37-.33a5.94,5.94,0,0,0,1.83-4.29v-7.9A5.78,5.78,0,0,0,39.11,15.68Z" transform="translate(0 0)"/>
  <path d="M39.74,7.31,40,6.78a3,3,0,0,0,.17-.5V5.7a1.92,1.92,0,0,0-.84-1.27,2.73,2.73,0,0,0-.55-.25l-.87-.32a.75.75,0,0,1-.49-.49c-.1-.29-.22-.58-.32-.87a1.93,1.93,0,0,0-1.52-1.39H35a6.57,6.57,0,0,0-1.4.58,1,1,0,0,1-.93,0c-.29-.16-.6-.28-.91-.42a4,4,0,0,0-.49-.16h-.58a1.86,1.86,0,0,0-1.38,1.05c-.12.25-.2.53-.3.79s-.12.29-.17.44a.7.7,0,0,1-.47.46l-1.07.41a1.84,1.84,0,0,0-1.2,1.48,1.88,1.88,0,0,0,.15,1l.25.55.24.53a.7.7,0,0,1,0,.63c-.11.22-.21.45-.3.68s-.11.23-.16.35a1.84,1.84,0,0,0,1,2.55l.58.22.48.18a.7.7,0,0,1,.38.29.89.89,0,0,1,.08.17l.11.3.3.78a1.83,1.83,0,0,0,2.5,1q.54-.23,1.05-.48a.77.77,0,0,1,.68,0l1,.45a1.83,1.83,0,0,0,2.39-.71A2.53,2.53,0,0,0,37,14s0-.07,0-.11h0c.06-.15.12-.3.17-.45s.13-.32.19-.49a.73.73,0,0,1,.47-.47c.29-.1.57-.22.87-.32l.2-.07a1.89,1.89,0,0,0,1.2-1.45V10a7.25,7.25,0,0,0-.59-1.41,1,1,0,0,1,0-.91Zm-1.28,3.62-1.06.39a1.88,1.88,0,0,0-1.12,1.12c0,.11-.08.23-.13.34s-.1.29-.16.44l-.12.33a.21.21,0,0,1-.06.1.62.62,0,0,1-.55.34.82.82,0,0,1-.33-.09l-1.08-.49a1.74,1.74,0,0,0-1.48,0l-1.08.49a.65.65,0,0,1-1-.41c0-.1-.07-.19-.11-.29L30,12.73c0-.1-.07-.2-.11-.3a.89.89,0,0,0-.08-.17,1.81,1.81,0,0,0-1-.94l-1.09-.41a.63.63,0,0,1-.38-.91l.39-.86.1-.22a1.83,1.83,0,0,0,0-1.55l0-.07-.45-1a.71.71,0,0,1,0-.58.69.69,0,0,1,.43-.38L28.8,5a1.85,1.85,0,0,0,1.13-1.14c.13-.36.27-.71.4-1.07a.64.64,0,0,1,.93-.38l1.07.48a1.8,1.8,0,0,0,1.54,0L35,2.38a.64.64,0,0,1,.93.38c.14.37.27.73.41,1.09A1.81,1.81,0,0,0,37.37,5l1.08.41a.68.68,0,0,1,.45.38.71.71,0,0,1,0,.58c-.15.33-.3.66-.44,1l.07,1.83c.12.28.25.55.37.83A.65.65,0,0,1,38.46,10.93Z" transform="translate(0 0)"/>
  <path d="M35.45,5.74a.62.62,0,0,1-.12.44c-.27.38-.56.75-.84,1.13l-.14.19L33.12,9.14c-.42.54-.83,1.09-1.24,1.64a.67.67,0,0,1-.51.31.61.61,0,0,1-.57-.86l.11-.16.7-.93L33,7.31l1.17-1.57.18-.24A.62.62,0,0,1,35,5.21.56.56,0,0,1,35.45,5.74Z" transform="translate(0 0)"/>
  <path d="M32.54,6.39a1.19,1.19,0,0,1-.45.92h0a1.16,1.16,0,0,1-.73.26,1.13,1.13,0,0,1-.74-.26h0a1.2,1.2,0,0,1-.44-.92,1.14,1.14,0,0,1,.2-.65,1.18,1.18,0,0,1,2,0A1.14,1.14,0,0,1,32.54,6.39Z" transform="translate(0 0)"/>
</svg>
