<svg id="Capa_1" data-name="Capa 1" xmlns="http://www.w3.org/2000/svg" viewBox="0 0 119.7 163.13">
  <path d="M12.4,168.33c-2.86-1-5.27-2.54-6.14-5.66a13,13,0,0,1-.47-3.45q0-72.46,0-144.93c0-5.77,3.35-9.07,9.14-9.07q39.74,0,79.48,0a5,5,0,0,1,3.83,1.56Q111,19.63,123.9,32.44a5,5,0,0,1,1.56,3.83q0,61.47,0,123c0,4.72-2.27,7.65-6.65,9.11ZM92.78,10.65H15.13c-3.07,0-3.92.87-3.92,4V158.8c0,3.27.81,4.1,4,4.1H116c3.12,0,4-.85,4-4V39.65c0-.56-.05-1.12-.09-1.83h-2c-5.89,0-11.79.06-17.68-.11A7.59,7.59,0,0,1,93,30.87c-.25-2.64-.18-5.3-.2-7.95C92.76,18.89,92.78,14.87,92.78,10.65Zm5.54,4.24c0,5.09-.06,10.1,0,15.11,0,1.54,1.17,2.34,2.69,2.35,4.76,0,9.53,0,14.3,0,.12,0,.24-.13.28-.15C109.89,26.46,104.18,20.74,98.32,14.89Z" transform="translate(-5.77 -5.2)"/>
  <path d="M106.32,84.17V89.4H52.09V84.17Z" transform="translate(-5.77 -5.2)"/>
  <path d="M52.08,62.16V57h54.23v5.21Z" transform="translate(-5.77 -5.2)"/>
  <path d="M52.08,116.58v-5.22h54.23v5.22Z" transform="translate(-5.77 -5.2)"/>
  <path d="M52.08,143.72V138.5h54.23v5.22Z" transform="translate(-5.77 -5.2)"/>
  <path d="M41.1,86.7a8.13,8.13,0,1,1-8.16-8.06A8.15,8.15,0,0,1,41.1,86.7Zm-5.44,0a2.65,2.65,0,0,0-2.83-2.58,2.65,2.65,0,1,0,.3,5.29A2.64,2.64,0,0,0,35.66,86.71Z" transform="translate(-5.77 -5.2)"/>
  <path d="M33.05,67.7a8.13,8.13,0,0,1-8.21-8,8.13,8.13,0,1,1,16.26-.14A8.08,8.08,0,0,1,33.05,67.7Zm2.61-8.08a2.76,2.76,0,0,0-2.73-2.74,2.84,2.84,0,0,0-2.65,2.68,2.74,2.74,0,0,0,2.59,2.69A2.68,2.68,0,0,0,35.66,59.62Z" transform="translate(-5.77 -5.2)"/>
  <path d="M33,105.85a8.08,8.08,0,0,1,8.11,8.09A8.13,8.13,0,1,1,33,105.85Zm0,5.44a2.75,2.75,0,0,0-2.75,2.7,2.84,2.84,0,0,0,2.65,2.68,2.76,2.76,0,0,0,2.73-2.74A2.7,2.7,0,0,0,33,111.29Z" transform="translate(-5.77 -5.2)"/>
  <path d="M41.1,141.14a8.14,8.14,0,1,1-16.27-.07,8.14,8.14,0,0,1,16.27.07Zm-8.19,2.67a2.69,2.69,0,0,0,2.75-2.68,2.78,2.78,0,0,0-2.61-2.69,2.82,2.82,0,0,0-2.77,2.72A2.75,2.75,0,0,0,32.91,143.81Z" transform="translate(-5.77 -5.2)"/>
</svg>
