<svg id="Capa_1" data-name="Capa 1" xmlns="http://www.w3.org/2000/svg" viewBox="0 0 166.09 166.35">
  <defs>
    <style>
      .cls-1 {
        fill: #111896;
      }
    </style>
  </defs>
  <path class="cls-1" d="M95.38,184a28.54,28.54,0,0,1-3.31-1.25,10.87,10.87,0,0,1-6.18-8.92,25.19,25.19,0,0,1-.11-2.75V116h-2.2Q56.81,116,30,116c-5.83,0-10.1-2.93-11.69-8a4,4,0,0,1-.26-1.1c0-4-.4-8.14.09-12.12.6-4.9,4.88-8.46,9.78-8.94a24.93,24.93,0,0,1,2.59-.11H85.78V83.59q0-26.79,0-53.57c0-5,1.93-8.81,6.46-11.1,3.3-1.68,14-1.69,17.33,0a11,11,0,0,1,6.34,9c.1.91.11,1.84.12,2.75V85.77h2.15c17.31,0,34.62.14,51.93-.07,6.8-.08,12,2.29,13.9,9.67v11c-1.92,7.43-7.18,9.74-13.9,9.66-17.3-.2-34.61-.07-51.91-.07H116v2.35q0,26.61,0,53.22a12.24,12.24,0,0,1-3.39,9.15,13.93,13.93,0,0,1-6.22,3.28Z" transform="translate(-17.91 -17.65)"/>
</svg>
