<svg id="Capa_1" data-name="Capa 1" xmlns="http://www.w3.org/2000/svg" viewBox="0 0 173.66 173.69">
  <defs>
    <style>
      .cls-1 {
        fill: #111896;
      }
    </style>
  </defs>
  <path class="cls-1" d="M160,40.46c0-4.76,0-9.37,0-14,0-5.46,3.81-9.5,8.91-9.53s9,4,9,9.58q0,20.38,0,40.77c0,5.72-3.77,9.49-9.5,9.49q-20.4,0-40.78,0c-5.54,0-9.61-3.87-9.57-9.05s4.07-8.88,9.54-8.89c7.48,0,15,0,22.44,0h1.8l.28-.46c-2.49-2.37-4.88-4.88-7.5-7.11C105.22,17.72,43.79,38.54,32.87,89.13a68.87,68.87,0,0,0,56.65,82.59c36.68,5.94,72.17-19.39,78.35-56A97.64,97.64,0,0,0,169,104c.24-5.28,4-9.25,9-9.24s9,4.08,8.94,9.49A86.81,86.81,0,0,1,17.86,131.34C2.69,86.93,26.47,37.43,70.9,22.17c32.36-11.11,61.73-4.86,87.69,17.41.28.24.56.49.85.72C159.52,40.37,159.66,40.37,160,40.46Z" transform="translate(-13.28 -16.79)"/>
</svg>
