<svg id="Capa_1" data-name="Capa 1" xmlns="http://www.w3.org/2000/svg" viewBox="0 0 143.56 175.73">
  <defs>
    <style>
      .cls-1 {
        fill: none;
      }
    </style>
  </defs>
  <path class="cls-1" d="M92.74,119.58l-.24,1.33L92.3,122l-1.19,6.63m1.63-9-.24,1.33L92.3,122l-1.19,6.63m-1.18,6.59v.06l-.81,4.5-.83,4.6v.07m1.66-9.23v.06l-.81,4.5-.83,4.6v.07M92.68,68.2H89.59m4,6a7,7,0,0,1-.7-.52m.7.52a7,7,0,0,1-.7-.52" transform="translate(-32.28 -13.47)"/>
  <path d="M175.69,127.88a7.72,7.72,0,0,0-8-7.2c-3.15,0-6.3,0-9.44,0h-.92c.5-.94,1-1.76,1.38-2.62a13,13,0,0,0-9.81-18.15l-.25,0a4.83,4.83,0,0,1-.5-.16H145c-1,.25-2,.44-2.92.78a11.1,11.1,0,0,0-3,1.64,14.13,14.13,0,0,0-4.05,5.12c-1.31,2.62-2.41,5.34-3.6,8-.11.25-.22.51-.41.93-.63-1.55-1.18-2.94-1.77-4.31a31.62,31.62,0,0,0-4.2-7.7,11.34,11.34,0,0,0-7.61-4.32,1.88,1.88,0,0,1-.39-.16H113.9a31,31,0,0,0-4.29,1.36,13,13,0,0,0-5.38,18.69c.17.26.32.53.54.93-.66,0-1.2,0-1.74,0-3.18,0-6.36-.09-9.53.13l-.34,0c-.22,0-.44,0-.66.08a7.54,7.54,0,0,0-6.08,6.35,2.21,2.21,0,0,1-.14.41v7.16a8.49,8.49,0,0,0,2.78,4.91l0,0a7.69,7.69,0,0,0,1.71,1.08,1.06,1.06,0,0,1,.72,1.17v5.6q0,4.73,0,9.43v23.77a8,8,0,0,0,2.21,5.95,7.88,7.88,0,0,0,2.31,1.59,8.71,8.71,0,0,0,3.62.79q31.38.08,62.75,0c4.78,0,8.11-3.44,8.11-8.3q0-19.35,0-38.71a1.26,1.26,0,0,1,.83-1.37,7.25,7.25,0,0,0,4.33-6.13A37.67,37.67,0,0,0,175.69,127.88Zm-27.38-22.76a7.83,7.83,0,0,1-1.24,15.5l-.55,0c-3.8.17-7.62,0-11.58,0,.65-1.65,1.2-3.21,1.88-4.71.79-1.73,1.58-3.48,2.42-5.19.32-.65.65-1.3,1-1.94l.21-.4A7,7,0,0,1,148.31,105.12ZM125.83,126h10.39v57.92H125.83Zm-16.64-18.07a8.42,8.42,0,0,1,.77-.82c2.8-2.63,7.32-2.95,9.91-.68a10.47,10.47,0,0,1,2.57,3.37c1.63,3.46,3.06,7,4.56,10.56a1.38,1.38,0,0,1,0,.33c-1.69,0-3.38,0-5.07,0h-.17a75.33,75.33,0,0,1-7.67-.18,7.16,7.16,0,0,1-6.29-5.42A7.26,7.26,0,0,1,109.19,107.92Zm-15,18q11.09,0,22.14,0h4a2,2,0,0,1,.25.06v10.42H94.75c-2.27,0-3.22-1-3.22-3.25,0-1.51,0-3,0-4.54A2.57,2.57,0,0,1,94.15,125.93Zm2.62,15.76H120.5v42.22c-.27,0-.55,0-.83,0H99.92c-2.17,0-3.15-1-3.15-3.15Zm68.52,39c0,2.33-.93,3.26-3.29,3.26H141.58V141.69h23.71Zm5.24-47.06a2.6,2.6,0,0,1-2.72,2.77H142c-.11,0-.22,0-.4,0V125.92h25.77c2.24,0,3.2,1,3.21,3.17C170.54,130.6,170.55,132.12,170.53,133.63Z" transform="translate(-32.28 -13.47)"/>
  <path d="M162.63,13.48H158a3.8,3.8,0,0,0-.14,7.56h2.52V50.39a1.76,1.76,0,0,1-1.76,1.76H41.53A1.76,1.76,0,0,1,40,50.4V21.05H136.1a3.8,3.8,0,0,0,.35-7.58H37.69A5.48,5.48,0,0,0,32.28,19V50.39a9.33,9.33,0,0,0,9.32,9.32h9.62L64.92,178.5a9.26,9.26,0,0,0,9.23,8.28h13.6a14.2,14.2,0,0,1-1.22-5.94v-1.7H73.78l-1.22-.92L71,164.65h15.5q0-3.79,0-7.59H70L68.71,145.6,79.1,135.24l3,3a17.46,17.46,0,0,1-.69-2.25l-.14-.57v-8.59l.3-.85a12.42,12.42,0,0,1,11.21-10.14c1.62-.12,3.22-.16,4.65-.17a18,18,0,0,1,.48-7.91,17.64,17.64,0,0,1,3.93-7L84.49,83.37l9.15-9.16,8.7-8.7L120.2,83.37,106.57,97l.9-.45a20.66,20.66,0,0,1,3.76-1.28l1.2-.34.72-.22h4.9l.72.3.39.07,6.4-6.37,9.95,9.87a16.12,16.12,0,0,1,4.9-2.8,22.11,22.11,0,0,1,2.53-.71l.81-.2.63-.16H149l.54.18,4.06-35.17h4.9a9.29,9.29,0,0,0,9.27-9.26V17.93A5.13,5.13,0,0,0,162.63,13.48ZM59.9,69.58,73.81,83.37l-11,11ZM67.59,136,65.93,122l7.85,7.76ZM97,106.59l-17.86,17.8L64.57,109.85l-.64-5.91,15.2-15.2ZM79.12,78.05,60.73,59.71H97.54Zm46.4,0L107.14,59.61H144Zm16.35,16.2L131,83.37l13.9-13.91Z" transform="translate(-32.28 -13.47)"/>
</svg>
