<svg xmlns="http://www.w3.org/2000/svg" viewBox="0 0 29.04 36.99">
  <g id="OBJECTS">
    <path d="M599.61,523.85a1.37,1.37,0,0,0-1.37-1.38h-1a1.09,1.09,0,0,0,0,2.17h.24v5.88a.08.08,0,0,1-.08.08H572.83a.08.08,0,0,1-.07-.08v-5.88h19.8a1.09,1.09,0,1,0,0-2.17H572a1.44,1.44,0,0,0-1.44,1.46v6.59a2.25,2.25,0,0,0,2.25,2.25h1.76l2.85,24.7a2.24,2.24,0,0,0,2.23,2h11.86a2.24,2.24,0,0,0,2.23-2l2.85-24.7h.76a2.24,2.24,0,0,0,2.24-2.25v-6.67Zm-6,8.92-3.17,3.17-3.16-3.17Zm-4.7,4.7-3.34,3.34-3.34-3.34,3.34-3.34Zm0,9.75-3.34,3.34-3.34-3.34,3.34-3.34Zm-5.05-14.45-3.17,3.17-3.16-3.17Zm-6.82,2.58,2.12,2.12-1.68,1.68Zm.87,7.55-.11-1,2.89-2.89,3.34,3.34-3.34,3.33Zm.4,3.48.85.84-.67.67Zm.5,4.26,1.88-1.88,3.68,3.67-.1.22h-5.23Zm12.76,6.59-.07.06H579.67l-.08-.06-.27-2.41h12.56Zm.53-4.58h-5.55l3.89-3.89,1.89,1.88Zm.55-4.76-.67-.67.84-.84Zm.57-5h0l-2.77,2.77-3.34-3.34,3.34-3.34,2.9,2.89Zm.44-3.76L592,537.47l2.12-2.12Z" transform="translate(-570.58 -522.47)"/>
  </g>
</svg>
