<svg id="Capa_1" data-name="Capa 1" xmlns="http://www.w3.org/2000/svg" viewBox="0 0 178.25 140.53">
  <defs>
    <style>
      .cls-1 {
        fill: none;
      }
    </style>
  </defs>
  <path d="M100.44,76.74,96.32,75.5a8.27,8.27,0,0,1-1.08-.41l-12,12L69.9,73.69h23a9.73,9.73,0,0,1-3.35-5.49H22.22a1.28,1.28,0,0,1-1.12-1.28V45.57H91a2.77,2.77,0,0,0,.26-5.52h-.27l-.36,0H19.48a4,4,0,0,0-4,4V66.91a6.79,6.79,0,0,0,6.78,6.78h7l10,86.32a6.73,6.73,0,0,0,6.71,6H86.54a9.77,9.77,0,0,1-1.13-5.53H45.67l-.9-.67L43.67,150H87.28l1-5.5H67.37l15.88-15.87,6.68,6.64,1.18-6.59-4-4L92.8,119l-.06.56Zm-3.11,4.1-2.2,18L87.22,91ZM79.38,91l-13,13-13-13,13-13ZM62.92,73.69,49.53,87.08,36.18,73.69ZM35.57,80.86,45.66,91l-8,8ZM39,110.19l-.47-4.29L49.53,94.85l13,13-13,12.93ZM40,119l5.71,5.63-4.5,4.5Zm22.6,25.42H42.93l-1-8.32,7.56-7.56,13.93,13.9Zm3.85-6.81-13-13,13-13,13,13ZM83.28,120.7l-13-13,13-13,11.09,11-.55,4.36Z" transform="translate(-15.5 -39.47)"/>
  <path class="cls-1" d="M86.54,166H87a6.65,6.65,0,0,0,2.75-.59m5.53-90.35a9.14,9.14,0,0,1-2.3-1.4m2.3,1.4a9.14,9.14,0,0,1-2.3-1.4m-.2,45.89-1.63,9m1.63-9-1.63,9m-1.18,6.59-1.66,9.23m1.66-9.23-1.66,9.23m15.25-69.91-.65,5.68m-10.19-12H89.59" transform="translate(-15.5 -39.47)"/>
  <path d="M174.39,63.94a2.75,2.75,0,0,1-3.35,1.6l-.25-.09-56.9-17.16L108.6,46.7l-4.43-1.34L98,65.8a1.27,1.27,0,0,0,.71,1.54l0,0,2.75.83H92.68a6.79,6.79,0,0,1,0-4l6.58-21.82a4,4,0,0,1,5-2.72l2,.59,7.57,2.28,58.55,17.65.35.09.25.08A2.77,2.77,0,0,1,174.39,63.94Z" transform="translate(-15.5 -39.47)"/>
  <path d="M122,98.14l16.17-8.67,8.67,16.16-16.16,8.68Zm15.11,39.78L121,146.59l-8.68-16.16,16.17-8.68Zm-1-53.56-16.69,9-8.92-16.67ZM114.59,95.9l-10,5.35,3.21-17.92ZM103.4,108.14l13.77-7.39,8.68,16.17-16.16,8.64-7.08-13.17Zm-2.37,13,3.83,7-5.6,3Zm-3,17,9.41-5.05,9.33,17.33L115.33,152l-18.8-5.67Zm37.34,36-1,.44-39.85-12-.66-.9,1.79-9.79L139.42,165Zm6.13-14.18-21.56-6.5,19.79-10.62,5.09,9.43Zm6.11-14.11-3-5.62,7-3.78Zm7.55-17.59L142,135.24l-8.68-16.17,16.16-8.67,7.43,13.78Zm4.52-10.44-5.29-9.85L167,101.14Zm-8-14.7-8.91-16.68,25.6,7.72ZM102.87,80.22,88.49,160.17a6.71,6.71,0,0,0,1.22,5.27,6.8,6.8,0,0,0,3.47,2.43l39.28,11.84a6.74,6.74,0,0,0,8.16-3.84L175.07,96.1l3.37,1a6.76,6.76,0,0,0,8.41-4.54l6.66-22.09.19-.5a3.74,3.74,0,0,0-2.61-4.16l-3.22-1a2.77,2.77,0,0,0-1.68,5.24l1.76.53-6.16,20.43a1.29,1.29,0,0,1-1.6.86l-68-20.5L101.52,68.2H92.68a6.78,6.78,0,0,0,4.5,4.43l6.34,1.91Z" transform="translate(-15.5 -39.47)"/>
</svg>
