<svg id="Capa_1" data-name="Capa 1" xmlns="http://www.w3.org/2000/svg" viewBox="0 0 110.74 141.73">
  <path d="M81.08,175.36a7.58,7.58,0,0,1-7.55-6.77L62.33,71.47H54.47a7.63,7.63,0,0,1-7.62-7.62V38.2a4.48,4.48,0,0,1,4.47-4.54h80l.4,0h.3a3.11,3.11,0,0,1,2.8,3.39,3.08,3.08,0,0,1-3.09,2.81H53.14v24a1.45,1.45,0,0,0,1.27,1.43h95.74a1.44,1.44,0,0,0,1.44-1.44v-24h-2.06a3.11,3.11,0,0,1,.11-6.18h3.78a4.19,4.19,0,0,1,4.16,3.64l0,.59v26A7.6,7.6,0,0,1,150,71.47h-4l-11.2,97.11a7.58,7.58,0,0,1-7.55,6.78Zm-1.3-7,1,.75h46.82l.92-.79L130,157.27H78.53Zm25.42-17.3h25.34l1.07-9.37-8.54-8.5Zm-28.57-9.37,1.07,9.37H99.79l1-2.24L85.13,133.22Zm12.89-12.89,14.6,14.59,14.6-14.59-14.6-14.6Zm37.94,0,5.07,5.07,1.29-11.43Zm-51.74,5,5.06-5.06-6.42-6.34Zm-3-26.17.53,4.83,11.9,11.89,14.6-14.55-14.6-14.6Zm35.81,2.05,14.6,14.6L135,112.51l.63-4.91L123.11,95.17Zm-19-18.87,14.6,14.6,14.6-14.6-14.6-14.6Zm-17.73,9,9-9L69.43,79.54Zm55.75-9,8.9,8.9,2.47-20.27Zm-4.47-4.35,15.07-15.07H108.05Zm-37.94,0L100.2,71.47H70.11Z" transform="translate(-46.85 -33.64)"/>
</svg>
